M48
; DRILL file KiCad 10.0.0 date 2026-09-05T15:19:10
; FORMAT={-:-/ absolute / metric / decimal}
; #@! TF.CreationDate,2026-09-05T15:19:10+02:00
; #@! TF.GenerationSoftware,Kicad,Pcbnew,10.0.0
; #@! TF.FileFunction,Plated,1,2,PTH
FMAT,2
METRIC
; #@! TA.AperFunction,Plated,PTH,ViaDrill
T1C0.300
; #@! TA.AperFunction,Plated,PTH,ComponentDrill
T2C0.800
; #@! TA.AperFunction,Plated,PTH,ComponentDrill
T3C1.000
; #@! TA.AperFunction,Plated,PTH,ComponentDrill
T4C1.020
; #@! TA.AperFunction,Plated,PTH,ComponentDrill
T5C3.200
%
G90
G05
T1
X101.5Y-101.5
X101.5Y-102.5
X101.5Y-103.5
X101.5Y-104.5
X101.5Y-105.5
X101.5Y-106.5
X101.5Y-107.5
X101.5Y-108.5
X101.5Y-109.5
X101.5Y-110.5
X101.5Y-111.5
X101.5Y-112.5
X101.5Y-113.5
X101.5Y-114.5
X101.5Y-115.5
X101.5Y-116.5
X101.5Y-117.5
X101.5Y-118.5
X101.5Y-119.5
X101.5Y-120.5
X101.5Y-121.5
X101.5Y-122.5
X101.5Y-123.5
X101.5Y-124.5
X101.5Y-125.5
X101.5Y-126.5
X101.5Y-127.5
X101.5Y-128.5
X101.5Y-129.5
X101.5Y-130.5
X101.5Y-131.5
X101.5Y-132.5
X101.5Y-133.5
X101.5Y-134.5
X101.5Y-135.5
X101.5Y-136.5
X101.5Y-137.5
X101.5Y-138.5
X101.5Y-139.5
X101.5Y-140.5
X101.5Y-141.5
X101.5Y-142.5
X101.5Y-143.5
X101.5Y-144.5
X101.5Y-145.5
X101.5Y-146.5
X101.5Y-147.5
X101.5Y-148.5
X102.5Y-101.5
X102.5Y-148.5
X103.5Y-101.5
X103.5Y-148.5
X104.5Y-101.5
X104.5Y-148.5
X105.0Y-108.0
X105.0Y-112.0
X105.0Y-118.5
X105.0Y-122.5
X105.0Y-130.0
X105.0Y-134.0
X105.5Y-101.5
X105.5Y-148.5
X106.0Y-108.0
X106.0Y-112.0
X106.0Y-118.5
X106.0Y-122.5
X106.0Y-130.0
X106.0Y-134.0
X106.5Y-101.5
X106.5Y-148.5
X107.0Y-108.0
X107.0Y-112.0
X107.0Y-118.5
X107.0Y-122.5
X107.0Y-130.0
X107.0Y-134.0
X107.5Y-101.5
X107.5Y-148.5
X108.0Y-108.0
X108.0Y-112.0
X108.0Y-118.5
X108.0Y-122.5
X108.0Y-130.0
X108.0Y-134.0
X108.5Y-101.5
X108.5Y-140.0
X108.5Y-141.0
X108.5Y-142.0
X108.5Y-143.0
X108.5Y-144.0
X108.5Y-148.5
X109.0Y-108.0
X109.0Y-112.0
X109.0Y-118.5
X109.0Y-122.5
X109.0Y-130.0
X109.0Y-134.0
X109.5Y-101.5
X109.5Y-148.5
X110.0Y-108.0
X110.0Y-112.0
X110.0Y-118.5
X110.0Y-122.5
X110.0Y-130.0
X110.0Y-134.0
X110.5Y-101.5
X110.5Y-148.5
X111.0Y-108.0
X111.0Y-112.0
X111.0Y-118.5
X111.0Y-122.5
X111.0Y-130.0
X111.0Y-134.0
X111.5Y-101.5
X111.5Y-148.5
X112.0Y-108.0
X112.0Y-112.0
X112.0Y-118.5
X112.0Y-122.5
X112.0Y-130.0
X112.0Y-134.0
X112.5Y-101.5
X112.5Y-148.5
X113.0Y-108.0
X113.0Y-112.0
X113.0Y-118.5
X113.0Y-122.5
X113.0Y-130.0
X113.0Y-134.0
X113.5Y-101.5
X113.5Y-148.5
X114.0Y-108.0
X114.0Y-112.0
X114.0Y-118.5
X114.0Y-122.5
X114.0Y-130.0
X114.0Y-134.0
X114.5Y-101.5
X114.5Y-148.5
X115.5Y-101.5
X115.5Y-148.5
X116.5Y-101.5
X116.5Y-148.5
X117.5Y-101.5
X117.5Y-148.5
X118.5Y-101.5
X118.5Y-148.5
X119.5Y-101.5
X119.5Y-148.5
X120.5Y-101.5
X120.5Y-103.5
X120.5Y-104.5
X120.5Y-105.5
X120.5Y-114.5
X120.5Y-115.5
X120.5Y-116.5
X120.5Y-125.5
X120.5Y-126.5
X120.5Y-127.5
X120.5Y-148.5
X121.5Y-101.5
X121.5Y-148.5
X122.5Y-101.5
X122.5Y-148.5
X123.5Y-101.5
X123.5Y-148.5
X124.5Y-101.5
X124.5Y-148.5
X125.0Y-106.5
X125.0Y-107.5
X125.0Y-108.5
X125.0Y-109.5
X125.0Y-110.5
X125.0Y-117.5
X125.0Y-118.5
X125.0Y-119.5
X125.0Y-120.5
X125.0Y-121.5
X125.0Y-128.5
X125.0Y-129.5
X125.0Y-130.5
X125.0Y-131.5
X125.0Y-132.5
X125.5Y-101.5
X125.5Y-148.5
X126.5Y-101.5
X126.5Y-148.5
X127.5Y-101.5
X127.5Y-148.5
X128.5Y-101.5
X128.5Y-102.5
X128.5Y-103.5
X128.5Y-104.5
X128.5Y-105.5
X128.5Y-106.5
X128.5Y-107.5
X128.5Y-108.5
X128.5Y-109.5
X128.5Y-110.5
X128.5Y-111.5
X128.5Y-112.5
X128.5Y-113.5
X128.5Y-114.5
X128.5Y-115.5
X128.5Y-116.5
X128.5Y-117.5
X128.5Y-118.5
X128.5Y-119.5
X128.5Y-120.5
X128.5Y-121.5
X128.5Y-122.5
X128.5Y-123.5
X128.5Y-124.5
X128.5Y-125.5
X128.5Y-126.5
X128.5Y-127.5
X128.5Y-128.5
X128.5Y-129.5
X128.5Y-130.5
X128.5Y-131.5
X128.5Y-132.5
X128.5Y-133.5
X128.5Y-134.5
X128.5Y-135.5
X128.5Y-136.5
X128.5Y-137.5
X128.5Y-138.5
X128.5Y-139.5
X128.5Y-140.5
X128.5Y-141.5
X128.5Y-142.5
X128.5Y-143.5
X128.5Y-144.5
X128.5Y-145.5
X128.5Y-146.5
X128.5Y-147.5
X128.5Y-148.5
T3
X105.41Y-109.855
X105.41Y-120.65
X105.41Y-132.08
X107.95Y-109.855
X107.95Y-120.65
X107.95Y-132.08
T4
X115.57Y-109.855
X115.57Y-120.65
X115.57Y-132.08
X118.11Y-109.855
X118.11Y-120.65
X118.11Y-132.08
X120.65Y-109.855
X120.65Y-120.65
X120.65Y-132.08
X123.19Y-109.855
X123.19Y-120.65
X123.19Y-132.08
T5
X108.0Y-115.0
X108.075Y-126.075
T2
G00X105.775Y-140.675
M15
G01X105.775Y-142.875
M16
G05
G00X107.925Y-146.575
M15
G01X110.625Y-146.575
M16
G05
G00X111.775Y-140.675
M15
G01X111.775Y-142.875
M16
G05
G00X114.47Y-139.74
M15
G01X116.67Y-139.74
M16
G05
G00X114.47Y-145.74
M15
G01X116.67Y-145.74
M16
G05
G00X120.37Y-143.59
M15
G01X120.37Y-140.89
M16
G05
M30
