M48
; DRILL file KiCad 10.0.0 date 2026-09-05T14:04:42
; FORMAT={-:-/ absolute / metric / decimal}
; #@! TF.CreationDate,2026-09-05T14:04:42+02:00
; #@! TF.GenerationSoftware,Kicad,Pcbnew,10.0.0
; #@! TF.FileFunction,Plated,1,2,PTH
FMAT,2
METRIC
; #@! TA.AperFunction,Plated,PTH,ComponentDrill
T1C0.800
; #@! TA.AperFunction,Plated,PTH,ComponentDrill
T2C1.000
; #@! TA.AperFunction,Plated,PTH,ComponentDrill
T3C1.020
; #@! TA.AperFunction,Plated,PTH,ComponentDrill
T4C3.200
%
G90
G05
T2
X105.41Y-109.855
X105.41Y-120.65
X105.41Y-132.08
X107.95Y-109.855
X107.95Y-120.65
X107.95Y-132.08
T3
X115.57Y-109.855
X115.57Y-120.65
X115.57Y-132.08
X118.11Y-109.855
X118.11Y-120.65
X118.11Y-132.08
X120.65Y-109.855
X120.65Y-120.65
X120.65Y-132.08
X123.19Y-109.855
X123.19Y-120.65
X123.19Y-132.08
T4
X108.0Y-115.0
X108.075Y-126.075
T1
G00X105.775Y-140.675
M15
G01X105.775Y-142.875
M16
G05
G00X107.925Y-146.575
M15
G01X110.625Y-146.575
M16
G05
G00X111.775Y-140.675
M15
G01X111.775Y-142.875
M16
G05
G00X114.47Y-139.74
M15
G01X116.67Y-139.74
M16
G05
G00X114.47Y-145.74
M15
G01X116.67Y-145.74
M16
G05
G00X120.37Y-143.59
M15
G01X120.37Y-140.89
M16
G05
M30
