%TF.GenerationSoftware,KiCad,Pcbnew,10.0.0*%
%TF.CreationDate,2026-09-05T15:19:12+02:00*%
%TF.ProjectId,fanpcb,66616e70-6362-42e6-9b69-6361645f7063,rev?*%
%TF.SameCoordinates,Original*%
%TF.FileFunction,Copper,L2,Bot*%
%TF.FilePolarity,Positive*%
%FSLAX46Y46*%
G04 Gerber Fmt 4.6, Leading zero omitted, Abs format (unit mm)*
G04 Created by KiCad (PCBNEW 10.0.0) date 2026-09-05 15:19:12*
%MOMM*%
%LPD*%
G01*
G04 APERTURE LIST*
%TA.AperFunction,ComponentPad*%
%ADD10R,1.730000X2.030000*%
%TD*%
%TA.AperFunction,ComponentPad*%
%ADD11O,1.730000X2.030000*%
%TD*%
%TA.AperFunction,ComponentPad*%
%ADD12C,3.600000*%
%TD*%
%TA.AperFunction,ConnectorPad*%
%ADD13C,5.600000*%
%TD*%
%TA.AperFunction,ComponentPad*%
%ADD14O,2.350000X4.700000*%
%TD*%
%TA.AperFunction,ComponentPad*%
%ADD15O,4.000000X2.000000*%
%TD*%
%TA.AperFunction,ComponentPad*%
%ADD16R,1.700000X1.700000*%
%TD*%
%TA.AperFunction,ComponentPad*%
%ADD17C,1.700000*%
%TD*%
%TA.AperFunction,ComponentPad*%
%ADD18O,4.700000X2.350000*%
%TD*%
%TA.AperFunction,ComponentPad*%
%ADD19O,2.000000X4.000000*%
%TD*%
%TA.AperFunction,ViaPad*%
%ADD20C,0.600000*%
%TD*%
%TA.AperFunction,Conductor*%
%ADD21C,2.000000*%
%TD*%
%TA.AperFunction,Conductor*%
%ADD22C,4.000000*%
%TD*%
G04 APERTURE END LIST*
D10*
%TO.P,M3,1,-_1*%
%TO.N,Net-(JP3-B)*%
X115570000Y-132080000D03*
D11*
%TO.P,M3,2,+_2*%
%TO.N,+12V*%
X118110000Y-132080000D03*
%TO.P,M3,3,Tacho_3*%
%TO.N,Net-(M3-Tacho)*%
X120650000Y-132080000D03*
%TO.P,M3,4,PWM_4*%
%TO.N,Net-(M3-PWM)*%
X123190000Y-132080000D03*
%TD*%
D12*
%TO.P,H1,1,1_1*%
%TO.N,GND*%
X108000000Y-115000000D03*
D13*
X108000000Y-115000000D03*
%TD*%
D14*
%TO.P,IN1,2*%
%TO.N,GND*%
X120370000Y-142240000D03*
D15*
%TO.P,IN1,3*%
X115570000Y-145740000D03*
%TO.P,IN1,4*%
%TO.N,+12V*%
X115570000Y-139740000D03*
%TD*%
D16*
%TO.P,JP2,1,A_1*%
%TO.N,GND*%
X105410000Y-120650000D03*
D17*
%TO.P,JP2,2,B_2*%
%TO.N,Net-(JP2-B)*%
X107950000Y-120650000D03*
%TD*%
D18*
%TO.P,IN2,2*%
%TO.N,GND*%
X109275000Y-146575000D03*
D19*
%TO.P,IN2,3*%
X105775000Y-141775000D03*
%TO.P,IN2,4*%
%TO.N,+12V*%
X111775000Y-141775000D03*
%TD*%
D10*
%TO.P,M2,1,-_1*%
%TO.N,Net-(JP2-B)*%
X115570000Y-120650000D03*
D11*
%TO.P,M2,2,+_2*%
%TO.N,+12V*%
X118110000Y-120650000D03*
%TO.P,M2,3,Tacho_3*%
%TO.N,Net-(M2-Tacho)*%
X120650000Y-120650000D03*
%TO.P,M2,4,PWM_4*%
%TO.N,Net-(M2-PWM)*%
X123190000Y-120650000D03*
%TD*%
D12*
%TO.P,H2,1,1_1*%
%TO.N,GND*%
X108075000Y-126075000D03*
D13*
X108075000Y-126075000D03*
%TD*%
D16*
%TO.P,JP1,1,A_1*%
%TO.N,GND*%
X105410000Y-109855000D03*
D17*
%TO.P,JP1,2,B_2*%
%TO.N,Net-(JP1-B)*%
X107950000Y-109855000D03*
%TD*%
D10*
%TO.P,M1,1,-_1*%
%TO.N,Net-(JP1-B)*%
X115570000Y-109855000D03*
D11*
%TO.P,M1,2,+_2*%
%TO.N,+12V*%
X118110000Y-109855000D03*
%TO.P,M1,3,Tacho_3*%
%TO.N,Net-(M1-Tacho)*%
X120650000Y-109855000D03*
%TO.P,M1,4,PWM_4*%
%TO.N,Net-(M1-PWM)*%
X123190000Y-109855000D03*
%TD*%
D16*
%TO.P,JP3,1,A_1*%
%TO.N,GND*%
X105410000Y-132080000D03*
D17*
%TO.P,JP3,2,B_2*%
%TO.N,Net-(JP3-B)*%
X107950000Y-132080000D03*
%TD*%
D20*
%TO.N,GND*%
X125000000Y-106500000D03*
X101500000Y-124500000D03*
X116500000Y-148500000D03*
X128500000Y-125500000D03*
X125000000Y-118500000D03*
X124500000Y-148500000D03*
X107000000Y-108000000D03*
X104500000Y-101500000D03*
X105000000Y-130000000D03*
X113000000Y-134000000D03*
X109000000Y-134000000D03*
X128500000Y-108500000D03*
X122500000Y-148500000D03*
X101500000Y-112500000D03*
X128500000Y-127500000D03*
X107500000Y-101500000D03*
X128500000Y-120500000D03*
X105000000Y-112000000D03*
X125500000Y-148500000D03*
X105500000Y-148500000D03*
X115500000Y-101500000D03*
X109000000Y-108000000D03*
X128500000Y-124500000D03*
X128500000Y-133500000D03*
X128500000Y-126500000D03*
X128500000Y-136500000D03*
X101500000Y-134500000D03*
X111000000Y-112000000D03*
X102500000Y-101500000D03*
X108500000Y-140000000D03*
X123500000Y-101500000D03*
X108000000Y-118500000D03*
X128500000Y-138500000D03*
X121500000Y-148500000D03*
X105000000Y-134000000D03*
X101500000Y-111500000D03*
X110500000Y-148500000D03*
X101500000Y-142500000D03*
X110500000Y-101500000D03*
X101500000Y-105500000D03*
X114000000Y-134000000D03*
X101500000Y-104500000D03*
X107000000Y-122500000D03*
X112000000Y-134000000D03*
X119500000Y-148500000D03*
X122500000Y-101500000D03*
X120500000Y-104500000D03*
X111500000Y-148500000D03*
X128500000Y-145500000D03*
X125000000Y-130500000D03*
X111000000Y-118500000D03*
X101500000Y-118500000D03*
X113000000Y-122500000D03*
X128500000Y-140500000D03*
X113000000Y-112000000D03*
X101500000Y-137500000D03*
X128500000Y-117500000D03*
X101500000Y-109500000D03*
X108500000Y-144000000D03*
X128500000Y-106500000D03*
X101500000Y-139500000D03*
X108500000Y-101500000D03*
X128500000Y-111500000D03*
X128500000Y-147500000D03*
X128500000Y-135500000D03*
X110000000Y-118500000D03*
X114000000Y-118500000D03*
X108000000Y-130000000D03*
X125000000Y-108500000D03*
X109500000Y-148500000D03*
X106500000Y-148500000D03*
X125000000Y-128500000D03*
X110000000Y-130000000D03*
X114000000Y-122500000D03*
X108500000Y-148500000D03*
X107000000Y-112000000D03*
X114000000Y-130000000D03*
X115500000Y-148500000D03*
X125000000Y-117500000D03*
X101500000Y-138500000D03*
X114500000Y-148500000D03*
X101500000Y-102500000D03*
X110000000Y-108000000D03*
X109000000Y-118500000D03*
X101500000Y-132500000D03*
X126500000Y-101500000D03*
X125000000Y-131500000D03*
X128500000Y-123500000D03*
X127500000Y-148500000D03*
X120500000Y-116500000D03*
X101500000Y-136500000D03*
X120500000Y-126500000D03*
X119500000Y-101500000D03*
X128500000Y-141500000D03*
X101500000Y-145500000D03*
X125000000Y-132500000D03*
X106000000Y-118500000D03*
X107000000Y-118500000D03*
X128500000Y-129500000D03*
X120500000Y-101500000D03*
X111500000Y-101500000D03*
X128500000Y-110500000D03*
X128500000Y-137500000D03*
X128500000Y-104500000D03*
X106000000Y-134000000D03*
X101500000Y-117500000D03*
X101500000Y-140500000D03*
X112000000Y-118500000D03*
X112000000Y-130000000D03*
X101500000Y-103500000D03*
X126500000Y-148500000D03*
X101500000Y-122500000D03*
X128500000Y-116500000D03*
X101500000Y-108500000D03*
X108500000Y-143000000D03*
X101500000Y-101500000D03*
X128500000Y-103500000D03*
X127500000Y-101500000D03*
X113000000Y-118500000D03*
X112000000Y-122500000D03*
X128500000Y-121500000D03*
X128500000Y-128500000D03*
X112000000Y-108000000D03*
X128500000Y-122500000D03*
X108500000Y-142000000D03*
X109000000Y-122500000D03*
X125000000Y-107500000D03*
X128500000Y-107500000D03*
X128500000Y-143500000D03*
X102500000Y-148500000D03*
X128500000Y-112500000D03*
X120500000Y-125500000D03*
X128500000Y-142500000D03*
X128500000Y-134500000D03*
X128500000Y-102500000D03*
X106000000Y-112000000D03*
X121500000Y-101500000D03*
X112500000Y-148500000D03*
X125000000Y-121500000D03*
X107500000Y-148500000D03*
X107000000Y-134000000D03*
X128500000Y-105500000D03*
X125000000Y-110500000D03*
X109000000Y-112000000D03*
X128500000Y-130500000D03*
X105500000Y-101500000D03*
X123500000Y-148500000D03*
X120500000Y-115500000D03*
X111000000Y-134000000D03*
X101500000Y-113500000D03*
X101500000Y-141500000D03*
X101500000Y-128500000D03*
X108000000Y-122500000D03*
X101500000Y-107500000D03*
X113000000Y-130000000D03*
X105000000Y-118500000D03*
X101500000Y-121500000D03*
X101500000Y-144500000D03*
X111000000Y-122500000D03*
X105000000Y-122500000D03*
X101500000Y-148500000D03*
X125500000Y-101500000D03*
X101500000Y-114500000D03*
X111000000Y-130000000D03*
X108000000Y-134000000D03*
X128500000Y-132500000D03*
X118500000Y-101500000D03*
X101500000Y-143500000D03*
X101500000Y-123500000D03*
X128500000Y-114500000D03*
X106500000Y-101500000D03*
X120500000Y-105500000D03*
X128500000Y-115500000D03*
X110000000Y-134000000D03*
X101500000Y-126500000D03*
X120500000Y-103500000D03*
X101500000Y-127500000D03*
X120500000Y-127500000D03*
X109500000Y-101500000D03*
X101500000Y-147500000D03*
X108500000Y-141000000D03*
X128500000Y-113500000D03*
X114000000Y-108000000D03*
X101500000Y-120500000D03*
X128500000Y-148500000D03*
X113500000Y-101500000D03*
X113000000Y-108000000D03*
X101500000Y-133500000D03*
X128500000Y-144500000D03*
X124500000Y-101500000D03*
X112000000Y-112000000D03*
X101500000Y-106500000D03*
X101500000Y-135500000D03*
X118500000Y-148500000D03*
X110000000Y-122500000D03*
X104500000Y-148500000D03*
X106000000Y-122500000D03*
X128500000Y-139500000D03*
X108000000Y-108000000D03*
X106000000Y-108000000D03*
X107000000Y-130000000D03*
X101500000Y-146500000D03*
X101500000Y-119500000D03*
X117500000Y-101500000D03*
X101500000Y-116500000D03*
X125000000Y-109500000D03*
X110000000Y-112000000D03*
X106000000Y-130000000D03*
X128500000Y-118500000D03*
X109000000Y-130000000D03*
X117500000Y-148500000D03*
X120500000Y-148500000D03*
X103500000Y-148500000D03*
X120500000Y-114500000D03*
X125000000Y-120500000D03*
X125000000Y-129500000D03*
X128500000Y-109500000D03*
X113500000Y-148500000D03*
X128500000Y-146500000D03*
X101500000Y-130500000D03*
X114000000Y-112000000D03*
X116500000Y-101500000D03*
X125000000Y-119500000D03*
X128500000Y-131500000D03*
X128500000Y-119500000D03*
X101500000Y-129500000D03*
X128500000Y-101500000D03*
X114500000Y-101500000D03*
X111000000Y-108000000D03*
X101500000Y-115500000D03*
X103500000Y-101500000D03*
X112500000Y-101500000D03*
X101500000Y-131500000D03*
X108000000Y-112000000D03*
X101500000Y-125500000D03*
X105000000Y-108000000D03*
X101500000Y-110500000D03*
%TD*%
%TO.N,+12V*%
D21*
X118110000Y-109855000D02*
X118110000Y-120650000D01*
D22*
X113535000Y-141775000D02*
X115570000Y-139740000D01*
X111775000Y-141775000D02*
X113535000Y-141775000D01*
D21*
X118110000Y-137200000D02*
X115570000Y-139740000D01*
X118110000Y-132080000D02*
X118110000Y-120650000D01*
X118110000Y-132080000D02*
X118110000Y-137200000D01*
%TD*%
%TA.AperFunction,Conductor*%
%TO.N,GND*%
G36*
X129442539Y-100520185D02*
G01*
X129488294Y-100572989D01*
X129499500Y-100624500D01*
X129499500Y-149375500D01*
X129479815Y-149442539D01*
X129427011Y-149488294D01*
X129375500Y-149499500D01*
X100624500Y-149499500D01*
X100557461Y-149479815D01*
X100511706Y-149427011D01*
X100500500Y-149375500D01*
X100500500Y-146325000D01*
X106443459Y-146325000D01*
X107609314Y-146325000D01*
X107604920Y-146329394D01*
X107552259Y-146420606D01*
X107525000Y-146522339D01*
X107525000Y-146627661D01*
X107552259Y-146729394D01*
X107604920Y-146820606D01*
X107609314Y-146825000D01*
X106443460Y-146825000D01*
X106453659Y-146902468D01*
X106453661Y-146902479D01*
X106510489Y-147114568D01*
X106594512Y-147317416D01*
X106594516Y-147317426D01*
X106704299Y-147507576D01*
X106837964Y-147681772D01*
X106837970Y-147681779D01*
X106993220Y-147837029D01*
X106993227Y-147837035D01*
X107167423Y-147970700D01*
X107357573Y-148080483D01*
X107357583Y-148080487D01*
X107560431Y-148164510D01*
X107772523Y-148221339D01*
X107990207Y-148249999D01*
X107990222Y-148250000D01*
X109025000Y-148250000D01*
X109025000Y-146975000D01*
X109525000Y-146975000D01*
X109525000Y-148250000D01*
X110559778Y-148250000D01*
X110559792Y-148249999D01*
X110777476Y-148221339D01*
X110989568Y-148164510D01*
X111192416Y-148080487D01*
X111192426Y-148080483D01*
X111382576Y-147970700D01*
X111556772Y-147837035D01*
X111556779Y-147837029D01*
X111712029Y-147681779D01*
X111712035Y-147681772D01*
X111845700Y-147507576D01*
X111955483Y-147317426D01*
X111955487Y-147317416D01*
X112039510Y-147114568D01*
X112096338Y-146902479D01*
X112096340Y-146902468D01*
X112106540Y-146825000D01*
X110940686Y-146825000D01*
X110945080Y-146820606D01*
X110997741Y-146729394D01*
X111025000Y-146627661D01*
X111025000Y-146522339D01*
X110997741Y-146420606D01*
X110945080Y-146329394D01*
X110940686Y-146325000D01*
X112106540Y-146325000D01*
X112096340Y-146247531D01*
X112096338Y-146247520D01*
X112039509Y-146035428D01*
X112024996Y-146000389D01*
X111955488Y-145832583D01*
X111955483Y-145832573D01*
X111845700Y-145642423D01*
X111712035Y-145468227D01*
X111712029Y-145468220D01*
X111556779Y-145312970D01*
X111556772Y-145312964D01*
X111382576Y-145179299D01*
X111192426Y-145069516D01*
X111192416Y-145069512D01*
X110989568Y-144985489D01*
X110777476Y-144928660D01*
X110559792Y-144900000D01*
X109525000Y-144900000D01*
X109525000Y-146175000D01*
X109025000Y-146175000D01*
X109025000Y-144900000D01*
X107990207Y-144900000D01*
X107772523Y-144928660D01*
X107560431Y-144985489D01*
X107357583Y-145069512D01*
X107357573Y-145069516D01*
X107167423Y-145179299D01*
X106993227Y-145312964D01*
X106993220Y-145312970D01*
X106837970Y-145468220D01*
X106837964Y-145468227D01*
X106704299Y-145642423D01*
X106594516Y-145832573D01*
X106594512Y-145832583D01*
X106510489Y-146035431D01*
X106453661Y-146247520D01*
X106453659Y-146247531D01*
X106443459Y-146325000D01*
X100500500Y-146325000D01*
X100500500Y-140656947D01*
X104275000Y-140656947D01*
X104275000Y-141525000D01*
X105375000Y-141525000D01*
X105375000Y-142025000D01*
X104275000Y-142025000D01*
X104275000Y-142893052D01*
X104311934Y-143126247D01*
X104384897Y-143350802D01*
X104492085Y-143561171D01*
X104630866Y-143752186D01*
X104797813Y-143919133D01*
X104988828Y-144057914D01*
X105199195Y-144165102D01*
X105423744Y-144238063D01*
X105423750Y-144238065D01*
X105525000Y-144254101D01*
X105525000Y-143190686D01*
X105529394Y-143195080D01*
X105620606Y-143247741D01*
X105722339Y-143275000D01*
X105827661Y-143275000D01*
X105929394Y-143247741D01*
X106020606Y-143195080D01*
X106025000Y-143190686D01*
X106025000Y-144254100D01*
X106126249Y-144238065D01*
X106126255Y-144238063D01*
X106350804Y-144165102D01*
X106561171Y-144057914D01*
X106752186Y-143919133D01*
X106919133Y-143752186D01*
X107057914Y-143561171D01*
X107165102Y-143350802D01*
X107238065Y-143126247D01*
X107275000Y-142893052D01*
X107275000Y-142025000D01*
X106175000Y-142025000D01*
X106175000Y-141634568D01*
X109274500Y-141634568D01*
X109274500Y-141915431D01*
X109305942Y-142194494D01*
X109305945Y-142194512D01*
X109368439Y-142468317D01*
X109368443Y-142468329D01*
X109461200Y-142733411D01*
X109583053Y-142986442D01*
X109583055Y-142986445D01*
X109732477Y-143224248D01*
X109907584Y-143443825D01*
X110106175Y-143642416D01*
X110325752Y-143817523D01*
X110563555Y-143966945D01*
X110816592Y-144088801D01*
X111012682Y-144157416D01*
X111081670Y-144181556D01*
X111081682Y-144181560D01*
X111355491Y-144244055D01*
X111355497Y-144244055D01*
X111355505Y-144244057D01*
X111541547Y-144265018D01*
X111634569Y-144275499D01*
X111634572Y-144275500D01*
X113652126Y-144275500D01*
X113719165Y-144295185D01*
X113764920Y-144347989D01*
X113774864Y-144417147D01*
X113745839Y-144480703D01*
X113725012Y-144499818D01*
X113592814Y-144595866D01*
X113592813Y-144595866D01*
X113425866Y-144762813D01*
X113287085Y-144953828D01*
X113179897Y-145164197D01*
X113106934Y-145388752D01*
X113090898Y-145490000D01*
X114154314Y-145490000D01*
X114149920Y-145494394D01*
X114097259Y-145585606D01*
X114070000Y-145687339D01*
X114070000Y-145792661D01*
X114097259Y-145894394D01*
X114149920Y-145985606D01*
X114154314Y-145990000D01*
X113090898Y-145990000D01*
X113106934Y-146091247D01*
X113179897Y-146315802D01*
X113287085Y-146526171D01*
X113425866Y-146717186D01*
X113592813Y-146884133D01*
X113783828Y-147022914D01*
X113994197Y-147130102D01*
X114218752Y-147203065D01*
X114218751Y-147203065D01*
X114451948Y-147240000D01*
X115320000Y-147240000D01*
X115320000Y-146140000D01*
X115820000Y-146140000D01*
X115820000Y-147240000D01*
X116688052Y-147240000D01*
X116921247Y-147203065D01*
X117145802Y-147130102D01*
X117356171Y-147022914D01*
X117547186Y-146884133D01*
X117714133Y-146717186D01*
X117852914Y-146526171D01*
X117960102Y-146315802D01*
X118033065Y-146091247D01*
X118049102Y-145990000D01*
X116985686Y-145990000D01*
X116990080Y-145985606D01*
X117042741Y-145894394D01*
X117070000Y-145792661D01*
X117070000Y-145687339D01*
X117042741Y-145585606D01*
X116990080Y-145494394D01*
X116985686Y-145490000D01*
X118049102Y-145490000D01*
X118033065Y-145388752D01*
X117960102Y-145164197D01*
X117852914Y-144953828D01*
X117714133Y-144762813D01*
X117547186Y-144595866D01*
X117356171Y-144457085D01*
X117145802Y-144349897D01*
X116921247Y-144276934D01*
X116921248Y-144276934D01*
X116688052Y-144240000D01*
X115820000Y-144240000D01*
X115820000Y-145340000D01*
X115320000Y-145340000D01*
X115320000Y-144240000D01*
X114722720Y-144240000D01*
X114655681Y-144220315D01*
X114609926Y-144167511D01*
X114599982Y-144098353D01*
X114629007Y-144034797D01*
X114668919Y-144004280D01*
X114746439Y-143966948D01*
X114746439Y-143966947D01*
X114746445Y-143966945D01*
X114984248Y-143817523D01*
X115203825Y-143642416D01*
X117437416Y-141408825D01*
X117612523Y-141189248D01*
X117759581Y-140955207D01*
X118695000Y-140955207D01*
X118695000Y-141990000D01*
X119970000Y-141990000D01*
X119970000Y-142490000D01*
X118695000Y-142490000D01*
X118695000Y-143524792D01*
X118723660Y-143742476D01*
X118780489Y-143954568D01*
X118864512Y-144157416D01*
X118864516Y-144157426D01*
X118974299Y-144347576D01*
X119107964Y-144521772D01*
X119107970Y-144521779D01*
X119263220Y-144677029D01*
X119263227Y-144677035D01*
X119437423Y-144810700D01*
X119627573Y-144920483D01*
X119627583Y-144920487D01*
X119830431Y-145004510D01*
X120042520Y-145061338D01*
X120042531Y-145061340D01*
X120120000Y-145071540D01*
X120120000Y-143905686D01*
X120124394Y-143910080D01*
X120215606Y-143962741D01*
X120317339Y-143990000D01*
X120422661Y-143990000D01*
X120524394Y-143962741D01*
X120615606Y-143910080D01*
X120620000Y-143905686D01*
X120620000Y-145071539D01*
X120697468Y-145061340D01*
X120697479Y-145061338D01*
X120909568Y-145004510D01*
X121112416Y-144920487D01*
X121112426Y-144920483D01*
X121302576Y-144810700D01*
X121476772Y-144677035D01*
X121476779Y-144677029D01*
X121632029Y-144521779D01*
X121632035Y-144521772D01*
X121765700Y-144347576D01*
X121875483Y-144157426D01*
X121875487Y-144157416D01*
X121959510Y-143954568D01*
X122016339Y-143742476D01*
X122044999Y-143524792D01*
X122045000Y-143524778D01*
X122045000Y-142490000D01*
X120770000Y-142490000D01*
X120770000Y-141990000D01*
X122045000Y-141990000D01*
X122045000Y-140955221D01*
X122044999Y-140955207D01*
X122016339Y-140737523D01*
X121959510Y-140525431D01*
X121875487Y-140322583D01*
X121875483Y-140322573D01*
X121765700Y-140132423D01*
X121632035Y-139958227D01*
X121632029Y-139958220D01*
X121476779Y-139802970D01*
X121476772Y-139802964D01*
X121302576Y-139669299D01*
X121112426Y-139559516D01*
X121112416Y-139559512D01*
X120909568Y-139475489D01*
X120697480Y-139418661D01*
X120697470Y-139418659D01*
X120620000Y-139408459D01*
X120620000Y-140574314D01*
X120615606Y-140569920D01*
X120524394Y-140517259D01*
X120422661Y-140490000D01*
X120317339Y-140490000D01*
X120215606Y-140517259D01*
X120124394Y-140569920D01*
X120120000Y-140574314D01*
X120120000Y-139408459D01*
X120042529Y-139418659D01*
X120042519Y-139418661D01*
X119830431Y-139475489D01*
X119627583Y-139559512D01*
X119627573Y-139559516D01*
X119437423Y-139669299D01*
X119263227Y-139802964D01*
X119263220Y-139802970D01*
X119107970Y-139958220D01*
X119107964Y-139958227D01*
X118974299Y-140132423D01*
X118864516Y-140322573D01*
X118864512Y-140322583D01*
X118780489Y-140525431D01*
X118723660Y-140737523D01*
X118695000Y-140955207D01*
X117759581Y-140955207D01*
X117761945Y-140951445D01*
X117761948Y-140951439D01*
X117787994Y-140897355D01*
X117883794Y-140698422D01*
X117883795Y-140698418D01*
X117883801Y-140698407D01*
X117976560Y-140433318D01*
X118039055Y-140159508D01*
X118070500Y-139880425D01*
X118070500Y-139599575D01*
X118053080Y-139444970D01*
X118065134Y-139376149D01*
X118088616Y-139343409D01*
X119254517Y-138177510D01*
X119393343Y-137986434D01*
X119500568Y-137775993D01*
X119526079Y-137697477D01*
X119573553Y-137551368D01*
X119608069Y-137333443D01*
X119610500Y-137318097D01*
X119610500Y-133405972D01*
X119630185Y-133338933D01*
X119682989Y-133293178D01*
X119752147Y-133283234D01*
X119807381Y-133305652D01*
X119934322Y-133397880D01*
X120028251Y-133445739D01*
X120125829Y-133495458D01*
X120125832Y-133495459D01*
X120316494Y-133557408D01*
X120330245Y-133561876D01*
X120542533Y-133595500D01*
X120542534Y-133595500D01*
X120757466Y-133595500D01*
X120757467Y-133595500D01*
X120969755Y-133561876D01*
X120969758Y-133561875D01*
X120969759Y-133561875D01*
X121174167Y-133495459D01*
X121174170Y-133495458D01*
X121365678Y-133397880D01*
X121539563Y-133271545D01*
X121691545Y-133119563D01*
X121817880Y-132945678D01*
X121817879Y-132945678D01*
X121819682Y-132943198D01*
X121875012Y-132900532D01*
X121944625Y-132894553D01*
X122006420Y-132927159D01*
X122020318Y-132943198D01*
X122088740Y-133037372D01*
X122148455Y-133119563D01*
X122300437Y-133271545D01*
X122474322Y-133397880D01*
X122568251Y-133445739D01*
X122665829Y-133495458D01*
X122665832Y-133495459D01*
X122856494Y-133557408D01*
X122870245Y-133561876D01*
X123082533Y-133595500D01*
X123082534Y-133595500D01*
X123297466Y-133595500D01*
X123297467Y-133595500D01*
X123509755Y-133561876D01*
X123509758Y-133561875D01*
X123509759Y-133561875D01*
X123714167Y-133495459D01*
X123714170Y-133495458D01*
X123905678Y-133397880D01*
X124079563Y-133271545D01*
X124231545Y-133119563D01*
X124357880Y-132945678D01*
X124455458Y-132754170D01*
X124506066Y-132598414D01*
X124521875Y-132549759D01*
X124521875Y-132549758D01*
X124521876Y-132549755D01*
X124555500Y-132337467D01*
X124555500Y-131822533D01*
X124521876Y-131610245D01*
X124521875Y-131610241D01*
X124521875Y-131610240D01*
X124455459Y-131405832D01*
X124455458Y-131405829D01*
X124367315Y-131232840D01*
X124357880Y-131214322D01*
X124231545Y-131040437D01*
X124079563Y-130888455D01*
X123905678Y-130762120D01*
X123889795Y-130754027D01*
X123714170Y-130664541D01*
X123714167Y-130664540D01*
X123509757Y-130598124D01*
X123368229Y-130575708D01*
X123297467Y-130564500D01*
X123082533Y-130564500D01*
X123011770Y-130575708D01*
X122870243Y-130598124D01*
X122870240Y-130598124D01*
X122665832Y-130664540D01*
X122665829Y-130664541D01*
X122474321Y-130762120D01*
X122390981Y-130822671D01*
X122300437Y-130888455D01*
X122300435Y-130888457D01*
X122300434Y-130888457D01*
X122148457Y-131040434D01*
X122148457Y-131040435D01*
X122148455Y-131040437D01*
X122068528Y-131150447D01*
X122020318Y-131216802D01*
X121964988Y-131259467D01*
X121895374Y-131265446D01*
X121833579Y-131232840D01*
X121819682Y-131216802D01*
X121771472Y-131150447D01*
X121691545Y-131040437D01*
X121539563Y-130888455D01*
X121365678Y-130762120D01*
X121349795Y-130754027D01*
X121235725Y-130695905D01*
X121184929Y-130647930D01*
X121168134Y-130580109D01*
X121190672Y-130513974D01*
X121204333Y-130497744D01*
X121271789Y-130430289D01*
X121359394Y-130299179D01*
X121419737Y-130153497D01*
X121450500Y-129998842D01*
X121450500Y-129841158D01*
X121450500Y-129841155D01*
X121450499Y-129841153D01*
X121419738Y-129686510D01*
X121419737Y-129686503D01*
X121419735Y-129686498D01*
X121359397Y-129540827D01*
X121359390Y-129540814D01*
X121271789Y-129409711D01*
X121271786Y-129409707D01*
X121160292Y-129298213D01*
X121160288Y-129298210D01*
X121029185Y-129210609D01*
X121029172Y-129210602D01*
X120883501Y-129150264D01*
X120883489Y-129150261D01*
X120728845Y-129119500D01*
X120728842Y-129119500D01*
X120571158Y-129119500D01*
X120571155Y-129119500D01*
X120416510Y-129150261D01*
X120416498Y-129150264D01*
X120270827Y-129210602D01*
X120270814Y-129210609D01*
X120139711Y-129298210D01*
X120139707Y-129298213D01*
X120028213Y-129409707D01*
X120028210Y-129409711D01*
X119940609Y-129540814D01*
X119940602Y-129540827D01*
X119880264Y-129686498D01*
X119880261Y-129686510D01*
X119856117Y-129807889D01*
X119823732Y-129869800D01*
X119763016Y-129904375D01*
X119693247Y-129900635D01*
X119636575Y-129859768D01*
X119610994Y-129794750D01*
X119610500Y-129783698D01*
X119610500Y-121975972D01*
X119630185Y-121908933D01*
X119682989Y-121863178D01*
X119752147Y-121853234D01*
X119807381Y-121875652D01*
X119934322Y-121967880D01*
X120028251Y-122015739D01*
X120125829Y-122065458D01*
X120125832Y-122065459D01*
X120316494Y-122127408D01*
X120330245Y-122131876D01*
X120542533Y-122165500D01*
X120542534Y-122165500D01*
X120757466Y-122165500D01*
X120757467Y-122165500D01*
X120969755Y-122131876D01*
X120969758Y-122131875D01*
X120969759Y-122131875D01*
X121174167Y-122065459D01*
X121174170Y-122065458D01*
X121365678Y-121967880D01*
X121539563Y-121841545D01*
X121691545Y-121689563D01*
X121817880Y-121515678D01*
X121817879Y-121515678D01*
X121819682Y-121513198D01*
X121875012Y-121470532D01*
X121944625Y-121464553D01*
X122006420Y-121497159D01*
X122020318Y-121513198D01*
X122088740Y-121607372D01*
X122148455Y-121689563D01*
X122300437Y-121841545D01*
X122474322Y-121967880D01*
X122568251Y-122015739D01*
X122665829Y-122065458D01*
X122665832Y-122065459D01*
X122856494Y-122127408D01*
X122870245Y-122131876D01*
X123082533Y-122165500D01*
X123082534Y-122165500D01*
X123297466Y-122165500D01*
X123297467Y-122165500D01*
X123509755Y-122131876D01*
X123509758Y-122131875D01*
X123509759Y-122131875D01*
X123714167Y-122065459D01*
X123714170Y-122065458D01*
X123905678Y-121967880D01*
X124079563Y-121841545D01*
X124231545Y-121689563D01*
X124357880Y-121515678D01*
X124455458Y-121324170D01*
X124506066Y-121168414D01*
X124521875Y-121119759D01*
X124521875Y-121119758D01*
X124521876Y-121119755D01*
X124555500Y-120907467D01*
X124555500Y-120392533D01*
X124521876Y-120180245D01*
X124521875Y-120180241D01*
X124521875Y-120180240D01*
X124455459Y-119975832D01*
X124455458Y-119975829D01*
X124367315Y-119802840D01*
X124357880Y-119784322D01*
X124231545Y-119610437D01*
X124079563Y-119458455D01*
X123905678Y-119332120D01*
X123889795Y-119324027D01*
X123714170Y-119234541D01*
X123714167Y-119234540D01*
X123509757Y-119168124D01*
X123368229Y-119145708D01*
X123297467Y-119134500D01*
X123082533Y-119134500D01*
X123011770Y-119145708D01*
X122870243Y-119168124D01*
X122870240Y-119168124D01*
X122665832Y-119234540D01*
X122665829Y-119234541D01*
X122474321Y-119332120D01*
X122390981Y-119392671D01*
X122300437Y-119458455D01*
X122300435Y-119458457D01*
X122300434Y-119458457D01*
X122148457Y-119610434D01*
X122148457Y-119610435D01*
X122148455Y-119610437D01*
X122068528Y-119720447D01*
X122020318Y-119786802D01*
X121964988Y-119829467D01*
X121895374Y-119835446D01*
X121833579Y-119802840D01*
X121819682Y-119786802D01*
X121771472Y-119720447D01*
X121691545Y-119610437D01*
X121539563Y-119458455D01*
X121365678Y-119332120D01*
X121349795Y-119324027D01*
X121235725Y-119265905D01*
X121184929Y-119217930D01*
X121168134Y-119150109D01*
X121190672Y-119083974D01*
X121204333Y-119067744D01*
X121271789Y-119000289D01*
X121359394Y-118869179D01*
X121419737Y-118723497D01*
X121450500Y-118568842D01*
X121450500Y-118411158D01*
X121450500Y-118411155D01*
X121450499Y-118411153D01*
X121419738Y-118256510D01*
X121419737Y-118256503D01*
X121419735Y-118256498D01*
X121359397Y-118110827D01*
X121359390Y-118110814D01*
X121271789Y-117979711D01*
X121271786Y-117979707D01*
X121160292Y-117868213D01*
X121160288Y-117868210D01*
X121029185Y-117780609D01*
X121029172Y-117780602D01*
X120883501Y-117720264D01*
X120883489Y-117720261D01*
X120728845Y-117689500D01*
X120728842Y-117689500D01*
X120571158Y-117689500D01*
X120571155Y-117689500D01*
X120416510Y-117720261D01*
X120416498Y-117720264D01*
X120270827Y-117780602D01*
X120270814Y-117780609D01*
X120139711Y-117868210D01*
X120139707Y-117868213D01*
X120028213Y-117979707D01*
X120028210Y-117979711D01*
X119940609Y-118110814D01*
X119940602Y-118110827D01*
X119880264Y-118256498D01*
X119880261Y-118256510D01*
X119856117Y-118377889D01*
X119823732Y-118439800D01*
X119763016Y-118474375D01*
X119693247Y-118470635D01*
X119636575Y-118429768D01*
X119610994Y-118364750D01*
X119610500Y-118353698D01*
X119610500Y-111180972D01*
X119630185Y-111113933D01*
X119682989Y-111068178D01*
X119752147Y-111058234D01*
X119807381Y-111080652D01*
X119934322Y-111172880D01*
X120028251Y-111220739D01*
X120125829Y-111270458D01*
X120125832Y-111270459D01*
X120316494Y-111332408D01*
X120330245Y-111336876D01*
X120542533Y-111370500D01*
X120542534Y-111370500D01*
X120757466Y-111370500D01*
X120757467Y-111370500D01*
X120969755Y-111336876D01*
X120969758Y-111336875D01*
X120969759Y-111336875D01*
X121174167Y-111270459D01*
X121174170Y-111270458D01*
X121365678Y-111172880D01*
X121539563Y-111046545D01*
X121691545Y-110894563D01*
X121817880Y-110720678D01*
X121817879Y-110720678D01*
X121819682Y-110718198D01*
X121875012Y-110675532D01*
X121944625Y-110669553D01*
X122006420Y-110702159D01*
X122020318Y-110718198D01*
X122088740Y-110812372D01*
X122148455Y-110894563D01*
X122300437Y-111046545D01*
X122474322Y-111172880D01*
X122568251Y-111220739D01*
X122665829Y-111270458D01*
X122665832Y-111270459D01*
X122856494Y-111332408D01*
X122870245Y-111336876D01*
X123082533Y-111370500D01*
X123082534Y-111370500D01*
X123297466Y-111370500D01*
X123297467Y-111370500D01*
X123509755Y-111336876D01*
X123509758Y-111336875D01*
X123509759Y-111336875D01*
X123714167Y-111270459D01*
X123714170Y-111270458D01*
X123905678Y-111172880D01*
X124079563Y-111046545D01*
X124231545Y-110894563D01*
X124357880Y-110720678D01*
X124455458Y-110529170D01*
X124506066Y-110373414D01*
X124521875Y-110324759D01*
X124521875Y-110324758D01*
X124521876Y-110324755D01*
X124555500Y-110112467D01*
X124555500Y-109597533D01*
X124521876Y-109385245D01*
X124521875Y-109385241D01*
X124521875Y-109385240D01*
X124455459Y-109180832D01*
X124455458Y-109180829D01*
X124363630Y-109000608D01*
X124357880Y-108989322D01*
X124231545Y-108815437D01*
X124079563Y-108663455D01*
X123905678Y-108537120D01*
X123905674Y-108537118D01*
X123714170Y-108439541D01*
X123714167Y-108439540D01*
X123509757Y-108373124D01*
X123368229Y-108350708D01*
X123297467Y-108339500D01*
X123082533Y-108339500D01*
X123011770Y-108350708D01*
X122870243Y-108373124D01*
X122870240Y-108373124D01*
X122665832Y-108439540D01*
X122665829Y-108439541D01*
X122474321Y-108537120D01*
X122390981Y-108597671D01*
X122300437Y-108663455D01*
X122300435Y-108663457D01*
X122300434Y-108663457D01*
X122148457Y-108815434D01*
X122148457Y-108815435D01*
X122148455Y-108815437D01*
X122073387Y-108918759D01*
X122020318Y-108991802D01*
X121964988Y-109034467D01*
X121895374Y-109040446D01*
X121833579Y-109007840D01*
X121819682Y-108991802D01*
X121771472Y-108925447D01*
X121691545Y-108815437D01*
X121539563Y-108663455D01*
X121365678Y-108537120D01*
X121365674Y-108537118D01*
X121235725Y-108470905D01*
X121184929Y-108422930D01*
X121168134Y-108355109D01*
X121190672Y-108288974D01*
X121204333Y-108272744D01*
X121271789Y-108205289D01*
X121359394Y-108074179D01*
X121419737Y-107928497D01*
X121450500Y-107773842D01*
X121450500Y-107616158D01*
X121450500Y-107616155D01*
X121450499Y-107616153D01*
X121419738Y-107461510D01*
X121419737Y-107461503D01*
X121419735Y-107461498D01*
X121359397Y-107315827D01*
X121359390Y-107315814D01*
X121271789Y-107184711D01*
X121271786Y-107184707D01*
X121160292Y-107073213D01*
X121160288Y-107073210D01*
X121029185Y-106985609D01*
X121029172Y-106985602D01*
X120883501Y-106925264D01*
X120883489Y-106925261D01*
X120728845Y-106894500D01*
X120728842Y-106894500D01*
X120571158Y-106894500D01*
X120571155Y-106894500D01*
X120416510Y-106925261D01*
X120416498Y-106925264D01*
X120270827Y-106985602D01*
X120270814Y-106985609D01*
X120139711Y-107073210D01*
X120139707Y-107073213D01*
X120028213Y-107184707D01*
X120028210Y-107184711D01*
X119940609Y-107315814D01*
X119940602Y-107315827D01*
X119880264Y-107461498D01*
X119880261Y-107461510D01*
X119849500Y-107616153D01*
X119849500Y-107773846D01*
X119880261Y-107928489D01*
X119880264Y-107928501D01*
X119940602Y-108074172D01*
X119940609Y-108074185D01*
X120028210Y-108205288D01*
X120028213Y-108205292D01*
X120095660Y-108272739D01*
X120129145Y-108334062D01*
X120124161Y-108403754D01*
X120082289Y-108459687D01*
X120064275Y-108470904D01*
X119934323Y-108537118D01*
X119843036Y-108603443D01*
X119760437Y-108663455D01*
X119760435Y-108663457D01*
X119760434Y-108663457D01*
X119608457Y-108815434D01*
X119608450Y-108815443D01*
X119509260Y-108951964D01*
X119453930Y-108994630D01*
X119384317Y-109000608D01*
X119322522Y-108968002D01*
X119308629Y-108951968D01*
X119254517Y-108877490D01*
X119087510Y-108710483D01*
X118896433Y-108571657D01*
X118876791Y-108561649D01*
X118685990Y-108464430D01*
X118681499Y-108462571D01*
X118681532Y-108462489D01*
X118669095Y-108457336D01*
X118634176Y-108439544D01*
X118634167Y-108439540D01*
X118429757Y-108373124D01*
X118288229Y-108350708D01*
X118217467Y-108339500D01*
X118002533Y-108339500D01*
X117931770Y-108350708D01*
X117790243Y-108373124D01*
X117790240Y-108373124D01*
X117585831Y-108439541D01*
X117585830Y-108439541D01*
X117550904Y-108457337D01*
X117538472Y-108462486D01*
X117538507Y-108462569D01*
X117534005Y-108464433D01*
X117323566Y-108571657D01*
X117218753Y-108647809D01*
X117132490Y-108710483D01*
X117132488Y-108710485D01*
X117132485Y-108710486D01*
X117114793Y-108728179D01*
X117053469Y-108761663D01*
X116983778Y-108756677D01*
X116927845Y-108714804D01*
X116910932Y-108683829D01*
X116878797Y-108597671D01*
X116878793Y-108597664D01*
X116792547Y-108482455D01*
X116792544Y-108482452D01*
X116677335Y-108396206D01*
X116677328Y-108396202D01*
X116542482Y-108345908D01*
X116542483Y-108345908D01*
X116482883Y-108339501D01*
X116482881Y-108339500D01*
X116482873Y-108339500D01*
X116482864Y-108339500D01*
X114657129Y-108339500D01*
X114657123Y-108339501D01*
X114597516Y-108345908D01*
X114462671Y-108396202D01*
X114462664Y-108396206D01*
X114347455Y-108482452D01*
X114347452Y-108482455D01*
X114261206Y-108597664D01*
X114261202Y-108597671D01*
X114210908Y-108732517D01*
X114204501Y-108792116D01*
X114204500Y-108792135D01*
X114204500Y-110917870D01*
X114204501Y-110917876D01*
X114210908Y-110977483D01*
X114261202Y-111112328D01*
X114261206Y-111112335D01*
X114347452Y-111227544D01*
X114347455Y-111227547D01*
X114462664Y-111313793D01*
X114462671Y-111313797D01*
X114597517Y-111364091D01*
X114597516Y-111364091D01*
X114604444Y-111364835D01*
X114657127Y-111370500D01*
X116482872Y-111370499D01*
X116485500Y-111370499D01*
X116552539Y-111390184D01*
X116598294Y-111442987D01*
X116609500Y-111494499D01*
X116609500Y-119010500D01*
X116589815Y-119077539D01*
X116537011Y-119123294D01*
X116485500Y-119134500D01*
X114657129Y-119134500D01*
X114657123Y-119134501D01*
X114597516Y-119140908D01*
X114462671Y-119191202D01*
X114462664Y-119191206D01*
X114347455Y-119277452D01*
X114347452Y-119277455D01*
X114261206Y-119392664D01*
X114261202Y-119392671D01*
X114210908Y-119527517D01*
X114204501Y-119587116D01*
X114204500Y-119587135D01*
X114204500Y-121712870D01*
X114204501Y-121712876D01*
X114210908Y-121772483D01*
X114261202Y-121907328D01*
X114261206Y-121907335D01*
X114347452Y-122022544D01*
X114347455Y-122022547D01*
X114462664Y-122108793D01*
X114462671Y-122108797D01*
X114597517Y-122159091D01*
X114597516Y-122159091D01*
X114604444Y-122159835D01*
X114657127Y-122165500D01*
X116482872Y-122165499D01*
X116485500Y-122165499D01*
X116552539Y-122185184D01*
X116598294Y-122237987D01*
X116609500Y-122289499D01*
X116609500Y-130440500D01*
X116589815Y-130507539D01*
X116537011Y-130553294D01*
X116485500Y-130564500D01*
X114657129Y-130564500D01*
X114657123Y-130564501D01*
X114597516Y-130570908D01*
X114462671Y-130621202D01*
X114462664Y-130621206D01*
X114347455Y-130707452D01*
X114347452Y-130707455D01*
X114261206Y-130822664D01*
X114261202Y-130822671D01*
X114210908Y-130957517D01*
X114204501Y-131017116D01*
X114204500Y-131017135D01*
X114204500Y-133142870D01*
X114204501Y-133142876D01*
X114210908Y-133202483D01*
X114261202Y-133337328D01*
X114261206Y-133337335D01*
X114347452Y-133452544D01*
X114347455Y-133452547D01*
X114462664Y-133538793D01*
X114462671Y-133538797D01*
X114597517Y-133589091D01*
X114597516Y-133589091D01*
X114604444Y-133589835D01*
X114657127Y-133595500D01*
X116482872Y-133595499D01*
X116485500Y-133595499D01*
X116552539Y-133615184D01*
X116598294Y-133667987D01*
X116609500Y-133719499D01*
X116609500Y-136527110D01*
X116589815Y-136594149D01*
X116573181Y-136614791D01*
X115966591Y-137221380D01*
X115905268Y-137254865D01*
X115865026Y-137256919D01*
X115710429Y-137239500D01*
X115710425Y-137239500D01*
X115429575Y-137239500D01*
X115429568Y-137239500D01*
X115150506Y-137270942D01*
X115150488Y-137270945D01*
X114876682Y-137333439D01*
X114876670Y-137333443D01*
X114611599Y-137426196D01*
X114611577Y-137426205D01*
X114358560Y-137548051D01*
X114120753Y-137697476D01*
X113901175Y-137872583D01*
X112535578Y-139238181D01*
X112474255Y-139271666D01*
X112447897Y-139274500D01*
X111634568Y-139274500D01*
X111355505Y-139305942D01*
X111355487Y-139305945D01*
X111081682Y-139368439D01*
X111081670Y-139368443D01*
X110816588Y-139461200D01*
X110563557Y-139583053D01*
X110325753Y-139732476D01*
X110106175Y-139907583D01*
X109907583Y-140106175D01*
X109732476Y-140325753D01*
X109583053Y-140563557D01*
X109461200Y-140816588D01*
X109368443Y-141081670D01*
X109368439Y-141081682D01*
X109305945Y-141355487D01*
X109305942Y-141355505D01*
X109274500Y-141634568D01*
X106175000Y-141634568D01*
X106175000Y-141525000D01*
X107275000Y-141525000D01*
X107275000Y-140656947D01*
X107238065Y-140423752D01*
X107165102Y-140199197D01*
X107057914Y-139988828D01*
X106919133Y-139797813D01*
X106752186Y-139630866D01*
X106561171Y-139492085D01*
X106350802Y-139384897D01*
X106126247Y-139311934D01*
X106025000Y-139295897D01*
X106025000Y-140359314D01*
X106020606Y-140354920D01*
X105929394Y-140302259D01*
X105827661Y-140275000D01*
X105722339Y-140275000D01*
X105620606Y-140302259D01*
X105529394Y-140354920D01*
X105525000Y-140359314D01*
X105525000Y-139295897D01*
X105423752Y-139311934D01*
X105199197Y-139384897D01*
X104988828Y-139492085D01*
X104797813Y-139630866D01*
X104630866Y-139797813D01*
X104492085Y-139988828D01*
X104384897Y-140199197D01*
X104311934Y-140423752D01*
X104275000Y-140656947D01*
X100500500Y-140656947D01*
X100500500Y-131182155D01*
X104060000Y-131182155D01*
X104060000Y-131830000D01*
X104976988Y-131830000D01*
X104944075Y-131887007D01*
X104910000Y-132014174D01*
X104910000Y-132145826D01*
X104944075Y-132272993D01*
X104976988Y-132330000D01*
X104060000Y-132330000D01*
X104060000Y-132977844D01*
X104066401Y-133037372D01*
X104066403Y-133037379D01*
X104116645Y-133172086D01*
X104116649Y-133172093D01*
X104202809Y-133287187D01*
X104202812Y-133287190D01*
X104317906Y-133373350D01*
X104317913Y-133373354D01*
X104452620Y-133423596D01*
X104452627Y-133423598D01*
X104512155Y-133429999D01*
X104512172Y-133430000D01*
X105160000Y-133430000D01*
X105160000Y-132513012D01*
X105217007Y-132545925D01*
X105344174Y-132580000D01*
X105475826Y-132580000D01*
X105602993Y-132545925D01*
X105660000Y-132513012D01*
X105660000Y-133430000D01*
X106307828Y-133430000D01*
X106307844Y-133429999D01*
X106367372Y-133423598D01*
X106367379Y-133423596D01*
X106502086Y-133373354D01*
X106502093Y-133373350D01*
X106617187Y-133287190D01*
X106617190Y-133287187D01*
X106703350Y-133172093D01*
X106703354Y-133172086D01*
X106752422Y-133040529D01*
X106794293Y-132984595D01*
X106859757Y-132960178D01*
X106928030Y-132975030D01*
X106956285Y-132996181D01*
X107070213Y-133110109D01*
X107242179Y-133235048D01*
X107242181Y-133235049D01*
X107242184Y-133235051D01*
X107431588Y-133331557D01*
X107633757Y-133397246D01*
X107843713Y-133430500D01*
X107843714Y-133430500D01*
X108056286Y-133430500D01*
X108056287Y-133430500D01*
X108266243Y-133397246D01*
X108468412Y-133331557D01*
X108657816Y-133235051D01*
X108744471Y-133172093D01*
X108829786Y-133110109D01*
X108829788Y-133110106D01*
X108829792Y-133110104D01*
X108980104Y-132959792D01*
X108980106Y-132959788D01*
X108980109Y-132959786D01*
X109105048Y-132787820D01*
X109105047Y-132787820D01*
X109105051Y-132787816D01*
X109201557Y-132598412D01*
X109267246Y-132396243D01*
X109300500Y-132186287D01*
X109300500Y-131973713D01*
X109267246Y-131763757D01*
X109201557Y-131561588D01*
X109105051Y-131372184D01*
X109105049Y-131372181D01*
X109105048Y-131372179D01*
X108980109Y-131200213D01*
X108829786Y-131049890D01*
X108657820Y-130924951D01*
X108468414Y-130828444D01*
X108468413Y-130828443D01*
X108468412Y-130828443D01*
X108266243Y-130762754D01*
X108266241Y-130762753D01*
X108266240Y-130762753D01*
X108104957Y-130737208D01*
X108056287Y-130729500D01*
X107843713Y-130729500D01*
X107795042Y-130737208D01*
X107633760Y-130762753D01*
X107633757Y-130762754D01*
X107449359Y-130822669D01*
X107431585Y-130828444D01*
X107242179Y-130924951D01*
X107070215Y-131049889D01*
X106956285Y-131163819D01*
X106894962Y-131197303D01*
X106825270Y-131192319D01*
X106769337Y-131150447D01*
X106752422Y-131119470D01*
X106703354Y-130987913D01*
X106703350Y-130987906D01*
X106617190Y-130872812D01*
X106617187Y-130872809D01*
X106502093Y-130786649D01*
X106502086Y-130786645D01*
X106367379Y-130736403D01*
X106367372Y-130736401D01*
X106307844Y-130730000D01*
X105660000Y-130730000D01*
X105660000Y-131646988D01*
X105602993Y-131614075D01*
X105475826Y-131580000D01*
X105344174Y-131580000D01*
X105217007Y-131614075D01*
X105160000Y-131646988D01*
X105160000Y-130730000D01*
X104512155Y-130730000D01*
X104452627Y-130736401D01*
X104452620Y-130736403D01*
X104317913Y-130786645D01*
X104317906Y-130786649D01*
X104202812Y-130872809D01*
X104202809Y-130872812D01*
X104116649Y-130987906D01*
X104116645Y-130987913D01*
X104066403Y-131122620D01*
X104066401Y-131122627D01*
X104060000Y-131182155D01*
X100500500Y-131182155D01*
X100500500Y-119752155D01*
X104060000Y-119752155D01*
X104060000Y-120400000D01*
X104976988Y-120400000D01*
X104944075Y-120457007D01*
X104910000Y-120584174D01*
X104910000Y-120715826D01*
X104944075Y-120842993D01*
X104976988Y-120900000D01*
X104060000Y-120900000D01*
X104060000Y-121547844D01*
X104066401Y-121607372D01*
X104066403Y-121607379D01*
X104116645Y-121742086D01*
X104116649Y-121742093D01*
X104202809Y-121857187D01*
X104202812Y-121857190D01*
X104317906Y-121943350D01*
X104317913Y-121943354D01*
X104452620Y-121993596D01*
X104452627Y-121993598D01*
X104512155Y-121999999D01*
X104512172Y-122000000D01*
X105160000Y-122000000D01*
X105160000Y-121083012D01*
X105217007Y-121115925D01*
X105344174Y-121150000D01*
X105475826Y-121150000D01*
X105602993Y-121115925D01*
X105660000Y-121083012D01*
X105660000Y-122000000D01*
X106307828Y-122000000D01*
X106307844Y-121999999D01*
X106367372Y-121993598D01*
X106367379Y-121993596D01*
X106502086Y-121943354D01*
X106502093Y-121943350D01*
X106617187Y-121857190D01*
X106617190Y-121857187D01*
X106703350Y-121742093D01*
X106703354Y-121742086D01*
X106752422Y-121610529D01*
X106794293Y-121554595D01*
X106859757Y-121530178D01*
X106928030Y-121545030D01*
X106956285Y-121566181D01*
X107070213Y-121680109D01*
X107242179Y-121805048D01*
X107242181Y-121805049D01*
X107242184Y-121805051D01*
X107431588Y-121901557D01*
X107633757Y-121967246D01*
X107843713Y-122000500D01*
X107843714Y-122000500D01*
X108056286Y-122000500D01*
X108056287Y-122000500D01*
X108266243Y-121967246D01*
X108468412Y-121901557D01*
X108657816Y-121805051D01*
X108744471Y-121742093D01*
X108829786Y-121680109D01*
X108829788Y-121680106D01*
X108829792Y-121680104D01*
X108980104Y-121529792D01*
X108980106Y-121529788D01*
X108980109Y-121529786D01*
X109105048Y-121357820D01*
X109105047Y-121357820D01*
X109105051Y-121357816D01*
X109201557Y-121168412D01*
X109267246Y-120966243D01*
X109300500Y-120756287D01*
X109300500Y-120543713D01*
X109267246Y-120333757D01*
X109201557Y-120131588D01*
X109105051Y-119942184D01*
X109105049Y-119942181D01*
X109105048Y-119942179D01*
X108980109Y-119770213D01*
X108829786Y-119619890D01*
X108657820Y-119494951D01*
X108468414Y-119398444D01*
X108468413Y-119398443D01*
X108468412Y-119398443D01*
X108266243Y-119332754D01*
X108266241Y-119332753D01*
X108266240Y-119332753D01*
X108104957Y-119307208D01*
X108056287Y-119299500D01*
X107843713Y-119299500D01*
X107795042Y-119307208D01*
X107633760Y-119332753D01*
X107633757Y-119332754D01*
X107449359Y-119392669D01*
X107431585Y-119398444D01*
X107242179Y-119494951D01*
X107070215Y-119619889D01*
X106956285Y-119733819D01*
X106894962Y-119767303D01*
X106825270Y-119762319D01*
X106769337Y-119720447D01*
X106752422Y-119689470D01*
X106703354Y-119557913D01*
X106703350Y-119557906D01*
X106617190Y-119442812D01*
X106617187Y-119442809D01*
X106502093Y-119356649D01*
X106502086Y-119356645D01*
X106367379Y-119306403D01*
X106367372Y-119306401D01*
X106307844Y-119300000D01*
X105660000Y-119300000D01*
X105660000Y-120216988D01*
X105602993Y-120184075D01*
X105475826Y-120150000D01*
X105344174Y-120150000D01*
X105217007Y-120184075D01*
X105160000Y-120216988D01*
X105160000Y-119300000D01*
X104512155Y-119300000D01*
X104452627Y-119306401D01*
X104452620Y-119306403D01*
X104317913Y-119356645D01*
X104317906Y-119356649D01*
X104202812Y-119442809D01*
X104202809Y-119442812D01*
X104116649Y-119557906D01*
X104116645Y-119557913D01*
X104066403Y-119692620D01*
X104066401Y-119692627D01*
X104060000Y-119752155D01*
X100500500Y-119752155D01*
X100500500Y-108957155D01*
X104060000Y-108957155D01*
X104060000Y-109605000D01*
X104976988Y-109605000D01*
X104944075Y-109662007D01*
X104910000Y-109789174D01*
X104910000Y-109920826D01*
X104944075Y-110047993D01*
X104976988Y-110105000D01*
X104060000Y-110105000D01*
X104060000Y-110752844D01*
X104066401Y-110812372D01*
X104066403Y-110812379D01*
X104116645Y-110947086D01*
X104116649Y-110947093D01*
X104202809Y-111062187D01*
X104202812Y-111062190D01*
X104317906Y-111148350D01*
X104317913Y-111148354D01*
X104452620Y-111198596D01*
X104452627Y-111198598D01*
X104512155Y-111204999D01*
X104512172Y-111205000D01*
X105160000Y-111205000D01*
X105160000Y-110288012D01*
X105217007Y-110320925D01*
X105344174Y-110355000D01*
X105475826Y-110355000D01*
X105602993Y-110320925D01*
X105660000Y-110288012D01*
X105660000Y-111205000D01*
X106307828Y-111205000D01*
X106307844Y-111204999D01*
X106367372Y-111198598D01*
X106367379Y-111198596D01*
X106502086Y-111148354D01*
X106502093Y-111148350D01*
X106617187Y-111062190D01*
X106617190Y-111062187D01*
X106703350Y-110947093D01*
X106703354Y-110947086D01*
X106752422Y-110815529D01*
X106794293Y-110759595D01*
X106859757Y-110735178D01*
X106928030Y-110750030D01*
X106956285Y-110771181D01*
X107070213Y-110885109D01*
X107242179Y-111010048D01*
X107242181Y-111010049D01*
X107242184Y-111010051D01*
X107431588Y-111106557D01*
X107633757Y-111172246D01*
X107843713Y-111205500D01*
X107843714Y-111205500D01*
X108056286Y-111205500D01*
X108056287Y-111205500D01*
X108266243Y-111172246D01*
X108468412Y-111106557D01*
X108657816Y-111010051D01*
X108744471Y-110947093D01*
X108829786Y-110885109D01*
X108829788Y-110885106D01*
X108829792Y-110885104D01*
X108980104Y-110734792D01*
X108980106Y-110734788D01*
X108980109Y-110734786D01*
X109105048Y-110562820D01*
X109105047Y-110562820D01*
X109105051Y-110562816D01*
X109201557Y-110373412D01*
X109267246Y-110171243D01*
X109300500Y-109961287D01*
X109300500Y-109748713D01*
X109267246Y-109538757D01*
X109201557Y-109336588D01*
X109105051Y-109147184D01*
X109105049Y-109147181D01*
X109105048Y-109147179D01*
X108980109Y-108975213D01*
X108829786Y-108824890D01*
X108657820Y-108699951D01*
X108468414Y-108603444D01*
X108468413Y-108603443D01*
X108468412Y-108603443D01*
X108266243Y-108537754D01*
X108266241Y-108537753D01*
X108266240Y-108537753D01*
X108104957Y-108512208D01*
X108056287Y-108504500D01*
X107843713Y-108504500D01*
X107795042Y-108512208D01*
X107633760Y-108537753D01*
X107633757Y-108537754D01*
X107449359Y-108597669D01*
X107431585Y-108603444D01*
X107242179Y-108699951D01*
X107070215Y-108824889D01*
X106956285Y-108938819D01*
X106894962Y-108972303D01*
X106825270Y-108967319D01*
X106769337Y-108925447D01*
X106752422Y-108894470D01*
X106703354Y-108762913D01*
X106703350Y-108762906D01*
X106617190Y-108647812D01*
X106617187Y-108647809D01*
X106502093Y-108561649D01*
X106502086Y-108561645D01*
X106367379Y-108511403D01*
X106367372Y-108511401D01*
X106307844Y-108505000D01*
X105660000Y-108505000D01*
X105660000Y-109421988D01*
X105602993Y-109389075D01*
X105475826Y-109355000D01*
X105344174Y-109355000D01*
X105217007Y-109389075D01*
X105160000Y-109421988D01*
X105160000Y-108505000D01*
X104512155Y-108505000D01*
X104452627Y-108511401D01*
X104452620Y-108511403D01*
X104317913Y-108561645D01*
X104317906Y-108561649D01*
X104202812Y-108647809D01*
X104202809Y-108647812D01*
X104116649Y-108762906D01*
X104116645Y-108762913D01*
X104066403Y-108897620D01*
X104066401Y-108897627D01*
X104060000Y-108957155D01*
X100500500Y-108957155D01*
X100500500Y-100624500D01*
X100520185Y-100557461D01*
X100572989Y-100511706D01*
X100624500Y-100500500D01*
X129375500Y-100500500D01*
X129442539Y-100520185D01*
G37*
%TD.AperFunction*%
%TD*%
M02*
