%TF.GenerationSoftware,KiCad,Pcbnew,10.0.0*%
%TF.CreationDate,2026-09-05T18:47:35+02:00*%
%TF.ProjectId,fanpcb,66616e70-6362-42e6-9b69-6361645f7063,rev?*%
%TF.SameCoordinates,Original*%
%TF.FileFunction,Copper,L1,Top*%
%TF.FilePolarity,Positive*%
%FSLAX46Y46*%
G04 Gerber Fmt 4.6, Leading zero omitted, Abs format (unit mm)*
G04 Created by KiCad (PCBNEW 10.0.0) date 2026-09-05 18:47:35*
%MOMM*%
%LPD*%
G01*
G04 APERTURE LIST*
%TA.AperFunction,SMDPad,CuDef*%
%ADD10C,2.500000*%
%TD*%
%TA.AperFunction,ComponentPad*%
%ADD11R,1.730000X2.030000*%
%TD*%
%TA.AperFunction,ComponentPad*%
%ADD12O,1.730000X2.030000*%
%TD*%
%TA.AperFunction,ComponentPad*%
%ADD13C,3.600000*%
%TD*%
%TA.AperFunction,ConnectorPad*%
%ADD14C,5.600000*%
%TD*%
%TA.AperFunction,ComponentPad*%
%ADD15O,2.350000X4.700000*%
%TD*%
%TA.AperFunction,ComponentPad*%
%ADD16O,4.000000X2.000000*%
%TD*%
%TA.AperFunction,ComponentPad*%
%ADD17R,1.700000X1.700000*%
%TD*%
%TA.AperFunction,ComponentPad*%
%ADD18C,1.700000*%
%TD*%
%TA.AperFunction,ComponentPad*%
%ADD19O,4.700000X2.350000*%
%TD*%
%TA.AperFunction,ComponentPad*%
%ADD20O,2.000000X4.000000*%
%TD*%
%TA.AperFunction,ViaPad*%
%ADD21C,0.600000*%
%TD*%
%TA.AperFunction,Conductor*%
%ADD22C,0.600000*%
%TD*%
%TA.AperFunction,Conductor*%
%ADD23C,2.000000*%
%TD*%
G04 APERTURE END LIST*
D10*
%TO.P,PWM3,1,1_1*%
%TO.N,Net-(M3-PWM)*%
X123190000Y-126365000D03*
%TD*%
%TO.P,PWM2,1,1_1*%
%TO.N,Net-(M2-PWM)*%
X123190000Y-115570000D03*
%TD*%
%TO.P,T12V1,1,1_1*%
%TO.N,+12V*%
X124775000Y-140775000D03*
%TD*%
D11*
%TO.P,M3,1,-_1*%
%TO.N,Net-(D3-A)*%
X115570000Y-132080000D03*
D12*
%TO.P,M3,2,+_2*%
%TO.N,+12V*%
X118110000Y-132080000D03*
%TO.P,M3,3,Tacho_3*%
%TO.N,Net-(M3-Tacho)*%
X120650000Y-132080000D03*
%TO.P,M3,4,PWM_4*%
%TO.N,Net-(M3-PWM)*%
X123190000Y-132080000D03*
%TD*%
D13*
%TO.P,H1,1,1_1*%
%TO.N,GND*%
X108000000Y-115000000D03*
D14*
X108000000Y-115000000D03*
%TD*%
D10*
%TO.P,TGND1,1,1_1*%
%TO.N,GND*%
X124775000Y-146000000D03*
%TD*%
D15*
%TO.P,IN1,2*%
%TO.N,GND*%
X120370000Y-142240000D03*
D16*
%TO.P,IN1,3*%
X115570000Y-145740000D03*
%TO.P,IN1,4*%
%TO.N,+12V*%
X115570000Y-139740000D03*
%TD*%
D17*
%TO.P,JP2,1,A_1*%
%TO.N,GND*%
X105410000Y-120650000D03*
D18*
%TO.P,JP2,2,B_2*%
%TO.N,Net-(D2-A)*%
X107950000Y-120650000D03*
%TD*%
D10*
%TO.P,T2,1,1_1*%
%TO.N,Net-(M2-Tacho)*%
X115570000Y-115570000D03*
%TD*%
D19*
%TO.P,IN2,2*%
%TO.N,GND*%
X109275000Y-146575000D03*
D20*
%TO.P,IN2,3*%
X105775000Y-141775000D03*
%TO.P,IN2,4*%
%TO.N,+12V*%
X111775000Y-141775000D03*
%TD*%
D10*
%TO.P,PWM1,1,1_1*%
%TO.N,Net-(M1-PWM)*%
X123190000Y-104775000D03*
%TD*%
D11*
%TO.P,M2,1,-_1*%
%TO.N,Net-(D2-A)*%
X115570000Y-120650000D03*
D12*
%TO.P,M2,2,+_2*%
%TO.N,+12V*%
X118110000Y-120650000D03*
%TO.P,M2,3,Tacho_3*%
%TO.N,Net-(M2-Tacho)*%
X120650000Y-120650000D03*
%TO.P,M2,4,PWM_4*%
%TO.N,Net-(M2-PWM)*%
X123190000Y-120650000D03*
%TD*%
D10*
%TO.P,T1,1,1_1*%
%TO.N,Net-(M1-Tacho)*%
X115570000Y-104775000D03*
%TD*%
D13*
%TO.P,H2,1,1_1*%
%TO.N,GND*%
X108075000Y-126075000D03*
D14*
X108075000Y-126075000D03*
%TD*%
D17*
%TO.P,JP1,1,A_1*%
%TO.N,GND*%
X105410000Y-109855000D03*
D18*
%TO.P,JP1,2,B_2*%
%TO.N,Net-(D1-A)*%
X107950000Y-109855000D03*
%TD*%
D10*
%TO.P,T3,1,1_1*%
%TO.N,Net-(M3-Tacho)*%
X115570000Y-126365000D03*
%TD*%
D11*
%TO.P,M1,1,-_1*%
%TO.N,Net-(D1-A)*%
X115570000Y-109855000D03*
D12*
%TO.P,M1,2,+_2*%
%TO.N,+12V*%
X118110000Y-109855000D03*
%TO.P,M1,3,Tacho_3*%
%TO.N,Net-(M1-Tacho)*%
X120650000Y-109855000D03*
%TO.P,M1,4,PWM_4*%
%TO.N,Net-(M1-PWM)*%
X123190000Y-109855000D03*
%TD*%
D17*
%TO.P,JP3,1,A_1*%
%TO.N,GND*%
X105410000Y-132080000D03*
D18*
%TO.P,JP3,2,B_2*%
%TO.N,Net-(D3-A)*%
X107950000Y-132080000D03*
%TD*%
D21*
%TO.N,GND*%
X125000000Y-106500000D03*
X101500000Y-124500000D03*
X116500000Y-148500000D03*
X128500000Y-125500000D03*
X125000000Y-118500000D03*
X124500000Y-148500000D03*
X107000000Y-108000000D03*
X104500000Y-101500000D03*
X105000000Y-130000000D03*
X113000000Y-134000000D03*
X109000000Y-134000000D03*
X128500000Y-108500000D03*
X122500000Y-148500000D03*
X101500000Y-112500000D03*
X128500000Y-127500000D03*
X107500000Y-101500000D03*
X128500000Y-120500000D03*
X105000000Y-112000000D03*
X125500000Y-148500000D03*
X105500000Y-148500000D03*
X115500000Y-101500000D03*
X109000000Y-108000000D03*
X128500000Y-124500000D03*
X128500000Y-133500000D03*
X128500000Y-126500000D03*
X128500000Y-136500000D03*
X101500000Y-134500000D03*
X111000000Y-112000000D03*
X102500000Y-101500000D03*
X108500000Y-140000000D03*
X123500000Y-101500000D03*
X108000000Y-118500000D03*
X128500000Y-138500000D03*
X121500000Y-148500000D03*
X105000000Y-134000000D03*
X101500000Y-111500000D03*
X110500000Y-148500000D03*
X101500000Y-142500000D03*
X110500000Y-101500000D03*
X101500000Y-105500000D03*
X114000000Y-134000000D03*
X101500000Y-104500000D03*
X107000000Y-122500000D03*
X112000000Y-134000000D03*
X119500000Y-148500000D03*
X122500000Y-101500000D03*
X120500000Y-104500000D03*
X111500000Y-148500000D03*
X128500000Y-145500000D03*
X125000000Y-130500000D03*
X111000000Y-118500000D03*
X101500000Y-118500000D03*
X113000000Y-122500000D03*
X128500000Y-140500000D03*
X113000000Y-112000000D03*
X101500000Y-137500000D03*
X128500000Y-117500000D03*
X101500000Y-109500000D03*
X108500000Y-144000000D03*
X128500000Y-106500000D03*
X101500000Y-139500000D03*
X108500000Y-101500000D03*
X128500000Y-111500000D03*
X128500000Y-147500000D03*
X128500000Y-135500000D03*
X110000000Y-118500000D03*
X114000000Y-118500000D03*
X108000000Y-130000000D03*
X125000000Y-108500000D03*
X109500000Y-148500000D03*
X106500000Y-148500000D03*
X125000000Y-128500000D03*
X110000000Y-130000000D03*
X114000000Y-122500000D03*
X108500000Y-148500000D03*
X107000000Y-112000000D03*
X114000000Y-130000000D03*
X115500000Y-148500000D03*
X125000000Y-117500000D03*
X101500000Y-138500000D03*
X114500000Y-148500000D03*
X101500000Y-102500000D03*
X110000000Y-108000000D03*
X109000000Y-118500000D03*
X101500000Y-132500000D03*
X126500000Y-101500000D03*
X125000000Y-131500000D03*
X128500000Y-123500000D03*
X127500000Y-148500000D03*
X120500000Y-116500000D03*
X101500000Y-136500000D03*
X120500000Y-126500000D03*
X119500000Y-101500000D03*
X128500000Y-141500000D03*
X101500000Y-145500000D03*
X125000000Y-132500000D03*
X106000000Y-118500000D03*
X107000000Y-118500000D03*
X128500000Y-129500000D03*
X120500000Y-101500000D03*
X111500000Y-101500000D03*
X128500000Y-110500000D03*
X128500000Y-137500000D03*
X128500000Y-104500000D03*
X106000000Y-134000000D03*
X101500000Y-117500000D03*
X101500000Y-140500000D03*
X112000000Y-118500000D03*
X112000000Y-130000000D03*
X101500000Y-103500000D03*
X126500000Y-148500000D03*
X101500000Y-122500000D03*
X128500000Y-116500000D03*
X101500000Y-108500000D03*
X108500000Y-143000000D03*
X101500000Y-101500000D03*
X128500000Y-103500000D03*
X127500000Y-101500000D03*
X113000000Y-118500000D03*
X112000000Y-122500000D03*
X128500000Y-121500000D03*
X128500000Y-128500000D03*
X112000000Y-108000000D03*
X128500000Y-122500000D03*
X108500000Y-142000000D03*
X109000000Y-122500000D03*
X125000000Y-107500000D03*
X128500000Y-107500000D03*
X128500000Y-143500000D03*
X102500000Y-148500000D03*
X128500000Y-112500000D03*
X120500000Y-125500000D03*
X128500000Y-142500000D03*
X128500000Y-134500000D03*
X128500000Y-102500000D03*
X106000000Y-112000000D03*
X121500000Y-101500000D03*
X112500000Y-148500000D03*
X125000000Y-121500000D03*
X107500000Y-148500000D03*
X107000000Y-134000000D03*
X128500000Y-105500000D03*
X125000000Y-110500000D03*
X109000000Y-112000000D03*
X128500000Y-130500000D03*
X105500000Y-101500000D03*
X123500000Y-148500000D03*
X120500000Y-115500000D03*
X111000000Y-134000000D03*
X101500000Y-113500000D03*
X101500000Y-141500000D03*
X101500000Y-128500000D03*
X108000000Y-122500000D03*
X101500000Y-107500000D03*
X113000000Y-130000000D03*
X105000000Y-118500000D03*
X101500000Y-121500000D03*
X101500000Y-144500000D03*
X111000000Y-122500000D03*
X105000000Y-122500000D03*
X101500000Y-148500000D03*
X125500000Y-101500000D03*
X101500000Y-114500000D03*
X111000000Y-130000000D03*
X108000000Y-134000000D03*
X128500000Y-132500000D03*
X118500000Y-101500000D03*
X101500000Y-143500000D03*
X101500000Y-123500000D03*
X128500000Y-114500000D03*
X106500000Y-101500000D03*
X120500000Y-105500000D03*
X128500000Y-115500000D03*
X110000000Y-134000000D03*
X101500000Y-126500000D03*
X120500000Y-103500000D03*
X101500000Y-127500000D03*
X120500000Y-127500000D03*
X109500000Y-101500000D03*
X101500000Y-147500000D03*
X108500000Y-141000000D03*
X128500000Y-113500000D03*
X114000000Y-108000000D03*
X101500000Y-120500000D03*
X128500000Y-148500000D03*
X113500000Y-101500000D03*
X113000000Y-108000000D03*
X101500000Y-133500000D03*
X128500000Y-144500000D03*
X124500000Y-101500000D03*
X112000000Y-112000000D03*
X101500000Y-106500000D03*
X101500000Y-135500000D03*
X118500000Y-148500000D03*
X110000000Y-122500000D03*
X104500000Y-148500000D03*
X106000000Y-122500000D03*
X128500000Y-139500000D03*
X108000000Y-108000000D03*
X106000000Y-108000000D03*
X107000000Y-130000000D03*
X101500000Y-146500000D03*
X101500000Y-119500000D03*
X117500000Y-101500000D03*
X101500000Y-116500000D03*
X125000000Y-109500000D03*
X110000000Y-112000000D03*
X106000000Y-130000000D03*
X128500000Y-118500000D03*
X109000000Y-130000000D03*
X117500000Y-148500000D03*
X120500000Y-148500000D03*
X103500000Y-148500000D03*
X120500000Y-114500000D03*
X125000000Y-120500000D03*
X125000000Y-129500000D03*
X128500000Y-109500000D03*
X113500000Y-148500000D03*
X128500000Y-146500000D03*
X101500000Y-130500000D03*
X114000000Y-112000000D03*
X116500000Y-101500000D03*
X125000000Y-119500000D03*
X128500000Y-131500000D03*
X128500000Y-119500000D03*
X101500000Y-129500000D03*
X128500000Y-101500000D03*
X114500000Y-101500000D03*
X111000000Y-108000000D03*
X101500000Y-115500000D03*
X103500000Y-101500000D03*
X112500000Y-101500000D03*
X101500000Y-131500000D03*
X108000000Y-112000000D03*
X101500000Y-125500000D03*
X105000000Y-108000000D03*
X101500000Y-110500000D03*
%TD*%
%TO.N,Net-(M3-PWM)*%
D22*
X123190000Y-132080000D02*
X123190000Y-126365000D01*
%TO.N,Net-(M2-PWM)*%
X123190000Y-120650000D02*
X123190000Y-115570000D01*
%TO.N,+12V*%
X122000000Y-138000000D02*
X117310000Y-138000000D01*
X124775000Y-140775000D02*
X122000000Y-138000000D01*
X117310000Y-138000000D02*
X115570000Y-139740000D01*
%TO.N,Net-(D3-A)*%
D23*
X107950000Y-132080000D02*
X115570000Y-132080000D01*
%TO.N,Net-(M3-Tacho)*%
D22*
X115570000Y-127000000D02*
X115570000Y-126365000D01*
X120650000Y-132080000D02*
X115570000Y-127000000D01*
%TO.N,Net-(D2-A)*%
D23*
X107950000Y-120650000D02*
X115570000Y-120650000D01*
%TO.N,Net-(M2-Tacho)*%
D22*
X120650000Y-120650000D02*
X115570000Y-115570000D01*
%TO.N,Net-(M1-PWM)*%
X123190000Y-109855000D02*
X123190000Y-104775000D01*
%TO.N,Net-(M1-Tacho)*%
X120650000Y-109855000D02*
X115570000Y-104775000D01*
%TO.N,Net-(D1-A)*%
D23*
X107950000Y-109855000D02*
X115570000Y-109855000D01*
%TD*%
%TA.AperFunction,Conductor*%
%TO.N,GND*%
G36*
X129442539Y-100520185D02*
G01*
X129488294Y-100572989D01*
X129499500Y-100624500D01*
X129499500Y-149375500D01*
X129479815Y-149442539D01*
X129427011Y-149488294D01*
X129375500Y-149499500D01*
X100624500Y-149499500D01*
X100557461Y-149479815D01*
X100511706Y-149427011D01*
X100500500Y-149375500D01*
X100500500Y-146325000D01*
X106443459Y-146325000D01*
X107609314Y-146325000D01*
X107604920Y-146329394D01*
X107552259Y-146420606D01*
X107525000Y-146522339D01*
X107525000Y-146627661D01*
X107552259Y-146729394D01*
X107604920Y-146820606D01*
X107609314Y-146825000D01*
X106443460Y-146825000D01*
X106453659Y-146902468D01*
X106453661Y-146902479D01*
X106510489Y-147114568D01*
X106594512Y-147317416D01*
X106594516Y-147317426D01*
X106704299Y-147507576D01*
X106837964Y-147681772D01*
X106837970Y-147681779D01*
X106993220Y-147837029D01*
X106993227Y-147837035D01*
X107167423Y-147970700D01*
X107357573Y-148080483D01*
X107357583Y-148080487D01*
X107560431Y-148164510D01*
X107772523Y-148221339D01*
X107990207Y-148249999D01*
X107990222Y-148250000D01*
X109025000Y-148250000D01*
X109025000Y-146975000D01*
X109525000Y-146975000D01*
X109525000Y-148250000D01*
X110559778Y-148250000D01*
X110559792Y-148249999D01*
X110777476Y-148221339D01*
X110989568Y-148164510D01*
X111192416Y-148080487D01*
X111192426Y-148080483D01*
X111382576Y-147970700D01*
X111556772Y-147837035D01*
X111556779Y-147837029D01*
X111712029Y-147681779D01*
X111712035Y-147681772D01*
X111845700Y-147507576D01*
X111906875Y-147401617D01*
X123726934Y-147401617D01*
X123726934Y-147401618D01*
X123800666Y-147458194D01*
X123999330Y-147572893D01*
X123999340Y-147572897D01*
X124211269Y-147660681D01*
X124432862Y-147720057D01*
X124660289Y-147749998D01*
X124660306Y-147750000D01*
X124889694Y-147750000D01*
X124889710Y-147749998D01*
X125117137Y-147720057D01*
X125338730Y-147660681D01*
X125550659Y-147572897D01*
X125550668Y-147572893D01*
X125749327Y-147458197D01*
X125749334Y-147458192D01*
X125823064Y-147401617D01*
X124775000Y-146353553D01*
X123726934Y-147401617D01*
X111906875Y-147401617D01*
X111955483Y-147317426D01*
X111955487Y-147317416D01*
X112039510Y-147114568D01*
X112096338Y-146902479D01*
X112096340Y-146902468D01*
X112106540Y-146825000D01*
X110940686Y-146825000D01*
X110945080Y-146820606D01*
X110997741Y-146729394D01*
X111025000Y-146627661D01*
X111025000Y-146522339D01*
X110997741Y-146420606D01*
X110945080Y-146329394D01*
X110940686Y-146325000D01*
X112106540Y-146325000D01*
X112096340Y-146247531D01*
X112096338Y-146247520D01*
X112039509Y-146035428D01*
X112024996Y-146000389D01*
X111955488Y-145832583D01*
X111955483Y-145832573D01*
X111845700Y-145642423D01*
X111815104Y-145602549D01*
X111728742Y-145490000D01*
X113090898Y-145490000D01*
X114154314Y-145490000D01*
X114149920Y-145494394D01*
X114097259Y-145585606D01*
X114070000Y-145687339D01*
X114070000Y-145792661D01*
X114097259Y-145894394D01*
X114149920Y-145985606D01*
X114154314Y-145990000D01*
X113090898Y-145990000D01*
X113106934Y-146091247D01*
X113179897Y-146315802D01*
X113287085Y-146526171D01*
X113425866Y-146717186D01*
X113592813Y-146884133D01*
X113783828Y-147022914D01*
X113994197Y-147130102D01*
X114218752Y-147203065D01*
X114218751Y-147203065D01*
X114451948Y-147240000D01*
X115320000Y-147240000D01*
X115320000Y-146140000D01*
X115820000Y-146140000D01*
X115820000Y-147240000D01*
X116688052Y-147240000D01*
X116743664Y-147231192D01*
X116921247Y-147203065D01*
X117145802Y-147130102D01*
X117356171Y-147022914D01*
X117547186Y-146884133D01*
X117714133Y-146717186D01*
X117852914Y-146526171D01*
X117960102Y-146315802D01*
X118033065Y-146091247D01*
X118049102Y-145990000D01*
X116985686Y-145990000D01*
X116990080Y-145985606D01*
X117042741Y-145894394D01*
X117045176Y-145885305D01*
X123025000Y-145885305D01*
X123025000Y-146114694D01*
X123025001Y-146114710D01*
X123054942Y-146342137D01*
X123114318Y-146563730D01*
X123202102Y-146775659D01*
X123202106Y-146775669D01*
X123316799Y-146974324D01*
X123316805Y-146974331D01*
X123373381Y-147048064D01*
X124421446Y-146000000D01*
X124421446Y-145999999D01*
X125128553Y-145999999D01*
X125128553Y-146000000D01*
X126176617Y-147048064D01*
X126233192Y-146974334D01*
X126233197Y-146974327D01*
X126347893Y-146775668D01*
X126347897Y-146775659D01*
X126435681Y-146563730D01*
X126495057Y-146342137D01*
X126524998Y-146114710D01*
X126525000Y-146114694D01*
X126525000Y-145885305D01*
X126524998Y-145885289D01*
X126495057Y-145657862D01*
X126435681Y-145436269D01*
X126347897Y-145224340D01*
X126347893Y-145224330D01*
X126233194Y-145025666D01*
X126176618Y-144951934D01*
X126176617Y-144951934D01*
X125128553Y-145999999D01*
X124421446Y-145999999D01*
X123373380Y-144951934D01*
X123316810Y-145025659D01*
X123316801Y-145025673D01*
X123202106Y-145224330D01*
X123202102Y-145224340D01*
X123114318Y-145436269D01*
X123054942Y-145657862D01*
X123025001Y-145885289D01*
X123025000Y-145885305D01*
X117045176Y-145885305D01*
X117070000Y-145792661D01*
X117070000Y-145687339D01*
X117042741Y-145585606D01*
X116990080Y-145494394D01*
X116985686Y-145490000D01*
X118049102Y-145490000D01*
X118033065Y-145388752D01*
X117960102Y-145164197D01*
X117852914Y-144953828D01*
X117714133Y-144762813D01*
X117547186Y-144595866D01*
X117356171Y-144457085D01*
X117145802Y-144349897D01*
X116921247Y-144276934D01*
X116921248Y-144276934D01*
X116688052Y-144240000D01*
X115820000Y-144240000D01*
X115820000Y-145340000D01*
X115320000Y-145340000D01*
X115320000Y-144240000D01*
X114451948Y-144240000D01*
X114218752Y-144276934D01*
X113994197Y-144349897D01*
X113783828Y-144457085D01*
X113592813Y-144595866D01*
X113425866Y-144762813D01*
X113287085Y-144953828D01*
X113179897Y-145164197D01*
X113106934Y-145388752D01*
X113090898Y-145490000D01*
X111728742Y-145490000D01*
X111712035Y-145468227D01*
X111712029Y-145468220D01*
X111556779Y-145312970D01*
X111556772Y-145312964D01*
X111382576Y-145179299D01*
X111192426Y-145069516D01*
X111192416Y-145069512D01*
X110989568Y-144985489D01*
X110777476Y-144928660D01*
X110559792Y-144900000D01*
X109525000Y-144900000D01*
X109525000Y-146175000D01*
X109025000Y-146175000D01*
X109025000Y-144900000D01*
X107990207Y-144900000D01*
X107772523Y-144928660D01*
X107560431Y-144985489D01*
X107357583Y-145069512D01*
X107357573Y-145069516D01*
X107167423Y-145179299D01*
X106993227Y-145312964D01*
X106993220Y-145312970D01*
X106837970Y-145468220D01*
X106837964Y-145468227D01*
X106704299Y-145642423D01*
X106594516Y-145832573D01*
X106594512Y-145832583D01*
X106510489Y-146035431D01*
X106453661Y-146247520D01*
X106453659Y-146247531D01*
X106443459Y-146325000D01*
X100500500Y-146325000D01*
X100500500Y-140656947D01*
X104275000Y-140656947D01*
X104275000Y-141525000D01*
X105375000Y-141525000D01*
X105375000Y-142025000D01*
X104275000Y-142025000D01*
X104275000Y-142893052D01*
X104311934Y-143126247D01*
X104384897Y-143350802D01*
X104492085Y-143561171D01*
X104630866Y-143752186D01*
X104797813Y-143919133D01*
X104988828Y-144057914D01*
X105199195Y-144165102D01*
X105423744Y-144238063D01*
X105423750Y-144238065D01*
X105525000Y-144254101D01*
X105525000Y-143190686D01*
X105529394Y-143195080D01*
X105620606Y-143247741D01*
X105722339Y-143275000D01*
X105827661Y-143275000D01*
X105929394Y-143247741D01*
X106020606Y-143195080D01*
X106025000Y-143190686D01*
X106025000Y-144254100D01*
X106126249Y-144238065D01*
X106126255Y-144238063D01*
X106350804Y-144165102D01*
X106561171Y-144057914D01*
X106752186Y-143919133D01*
X106919133Y-143752186D01*
X107057914Y-143561171D01*
X107165102Y-143350802D01*
X107238065Y-143126247D01*
X107275000Y-142893052D01*
X107275000Y-142025000D01*
X106175000Y-142025000D01*
X106175000Y-141525000D01*
X107275000Y-141525000D01*
X107275000Y-140656947D01*
X107274993Y-140656902D01*
X110274500Y-140656902D01*
X110274500Y-142893097D01*
X110311446Y-143126368D01*
X110384433Y-143350996D01*
X110472980Y-143524778D01*
X110491657Y-143561433D01*
X110630483Y-143752510D01*
X110797490Y-143919517D01*
X110988567Y-144058343D01*
X111087991Y-144109002D01*
X111199003Y-144165566D01*
X111199005Y-144165566D01*
X111199008Y-144165568D01*
X111319412Y-144204689D01*
X111423631Y-144238553D01*
X111656903Y-144275500D01*
X111656908Y-144275500D01*
X111893097Y-144275500D01*
X112126368Y-144238553D01*
X112127876Y-144238063D01*
X112350992Y-144165568D01*
X112561433Y-144058343D01*
X112752510Y-143919517D01*
X112919517Y-143752510D01*
X113058343Y-143561433D01*
X113165568Y-143350992D01*
X113238553Y-143126368D01*
X113253912Y-143029394D01*
X113275500Y-142893097D01*
X113275500Y-140866889D01*
X113295185Y-140799850D01*
X113347989Y-140754095D01*
X113417147Y-140744151D01*
X113480703Y-140773176D01*
X113487181Y-140779208D01*
X113592490Y-140884517D01*
X113783567Y-141023343D01*
X113882991Y-141074002D01*
X113994003Y-141130566D01*
X113994005Y-141130566D01*
X113994008Y-141130568D01*
X114114412Y-141169689D01*
X114218631Y-141203553D01*
X114451903Y-141240500D01*
X114451908Y-141240500D01*
X116688097Y-141240500D01*
X116921368Y-141203553D01*
X117145992Y-141130568D01*
X117356433Y-141023343D01*
X117450214Y-140955207D01*
X118695000Y-140955207D01*
X118695000Y-141990000D01*
X119970000Y-141990000D01*
X119970000Y-142490000D01*
X118695000Y-142490000D01*
X118695000Y-143524792D01*
X118723660Y-143742476D01*
X118780489Y-143954568D01*
X118864512Y-144157416D01*
X118864516Y-144157426D01*
X118974299Y-144347576D01*
X119107964Y-144521772D01*
X119107970Y-144521779D01*
X119263220Y-144677029D01*
X119263227Y-144677035D01*
X119437423Y-144810700D01*
X119627573Y-144920483D01*
X119627583Y-144920487D01*
X119830431Y-145004510D01*
X120042520Y-145061338D01*
X120042531Y-145061340D01*
X120120000Y-145071540D01*
X120120000Y-143905686D01*
X120124394Y-143910080D01*
X120215606Y-143962741D01*
X120317339Y-143990000D01*
X120422661Y-143990000D01*
X120524394Y-143962741D01*
X120615606Y-143910080D01*
X120620000Y-143905686D01*
X120620000Y-145071539D01*
X120697468Y-145061340D01*
X120697479Y-145061338D01*
X120909568Y-145004510D01*
X121112416Y-144920487D01*
X121112426Y-144920483D01*
X121302576Y-144810700D01*
X121476772Y-144677035D01*
X121476779Y-144677029D01*
X121555429Y-144598380D01*
X123726934Y-144598380D01*
X124774999Y-145646446D01*
X125823064Y-144598381D01*
X125823064Y-144598380D01*
X125749331Y-144541805D01*
X125749324Y-144541799D01*
X125550669Y-144427106D01*
X125550659Y-144427102D01*
X125338730Y-144339318D01*
X125117137Y-144279942D01*
X124889710Y-144250001D01*
X124889694Y-144250000D01*
X124660306Y-144250000D01*
X124660289Y-144250001D01*
X124432862Y-144279942D01*
X124211269Y-144339318D01*
X123999340Y-144427102D01*
X123999330Y-144427106D01*
X123800673Y-144541801D01*
X123800659Y-144541810D01*
X123726934Y-144598380D01*
X121555429Y-144598380D01*
X121595156Y-144558653D01*
X121632029Y-144521779D01*
X121632035Y-144521772D01*
X121765700Y-144347576D01*
X121875483Y-144157426D01*
X121875487Y-144157416D01*
X121959510Y-143954568D01*
X122016339Y-143742476D01*
X122044999Y-143524792D01*
X122045000Y-143524778D01*
X122045000Y-142490000D01*
X120770000Y-142490000D01*
X120770000Y-141990000D01*
X122045000Y-141990000D01*
X122045000Y-140955221D01*
X122044999Y-140955207D01*
X122016339Y-140737523D01*
X121959510Y-140525431D01*
X121875487Y-140322583D01*
X121875483Y-140322573D01*
X121765700Y-140132423D01*
X121632035Y-139958227D01*
X121632029Y-139958220D01*
X121476779Y-139802970D01*
X121476772Y-139802964D01*
X121302576Y-139669299D01*
X121112426Y-139559516D01*
X121112416Y-139559512D01*
X120909568Y-139475489D01*
X120697480Y-139418661D01*
X120697470Y-139418659D01*
X120620000Y-139408459D01*
X120620000Y-140574314D01*
X120615606Y-140569920D01*
X120524394Y-140517259D01*
X120422661Y-140490000D01*
X120317339Y-140490000D01*
X120215606Y-140517259D01*
X120124394Y-140569920D01*
X120120000Y-140574314D01*
X120120000Y-139408459D01*
X120042529Y-139418659D01*
X120042519Y-139418661D01*
X119830431Y-139475489D01*
X119627583Y-139559512D01*
X119627573Y-139559516D01*
X119437423Y-139669299D01*
X119263227Y-139802964D01*
X119263220Y-139802970D01*
X119107970Y-139958220D01*
X119107964Y-139958227D01*
X118974299Y-140132423D01*
X118864516Y-140322573D01*
X118864512Y-140322583D01*
X118780489Y-140525431D01*
X118723660Y-140737523D01*
X118695000Y-140955207D01*
X117450214Y-140955207D01*
X117547510Y-140884517D01*
X117714517Y-140717510D01*
X117853343Y-140526433D01*
X117960568Y-140315992D01*
X118033553Y-140091368D01*
X118048165Y-139999112D01*
X118070500Y-139858097D01*
X118070500Y-139621902D01*
X118033553Y-139388631D01*
X117972801Y-139201657D01*
X117960568Y-139164008D01*
X117960566Y-139164005D01*
X117960566Y-139164003D01*
X117867216Y-138980795D01*
X117854320Y-138912126D01*
X117880596Y-138847385D01*
X117937703Y-138807128D01*
X117977701Y-138800500D01*
X121617060Y-138800500D01*
X121684099Y-138820185D01*
X121704741Y-138836819D01*
X123055863Y-140187941D01*
X123089348Y-140249264D01*
X123087957Y-140307715D01*
X123054454Y-140432751D01*
X123054452Y-140432763D01*
X123024500Y-140660258D01*
X123024500Y-140889741D01*
X123042090Y-141023342D01*
X123054452Y-141117238D01*
X123058024Y-141130568D01*
X123113842Y-141338887D01*
X123201650Y-141550876D01*
X123201657Y-141550890D01*
X123316392Y-141749617D01*
X123456081Y-141931661D01*
X123456089Y-141931670D01*
X123618330Y-142093911D01*
X123618338Y-142093918D01*
X123800382Y-142233607D01*
X123800385Y-142233608D01*
X123800388Y-142233611D01*
X123999112Y-142348344D01*
X123999117Y-142348346D01*
X123999123Y-142348349D01*
X124090480Y-142386190D01*
X124211113Y-142436158D01*
X124432762Y-142495548D01*
X124660266Y-142525500D01*
X124660273Y-142525500D01*
X124889727Y-142525500D01*
X124889734Y-142525500D01*
X125117238Y-142495548D01*
X125338887Y-142436158D01*
X125550888Y-142348344D01*
X125749612Y-142233611D01*
X125931661Y-142093919D01*
X125931665Y-142093914D01*
X125931670Y-142093911D01*
X126093911Y-141931670D01*
X126093914Y-141931665D01*
X126093919Y-141931661D01*
X126233611Y-141749612D01*
X126348344Y-141550888D01*
X126436158Y-141338887D01*
X126495548Y-141117238D01*
X126525500Y-140889734D01*
X126525500Y-140660266D01*
X126495548Y-140432762D01*
X126436158Y-140211113D01*
X126348344Y-139999112D01*
X126233611Y-139800388D01*
X126233608Y-139800385D01*
X126233607Y-139800382D01*
X126103237Y-139630483D01*
X126093919Y-139618339D01*
X126093918Y-139618338D01*
X126093911Y-139618330D01*
X125931670Y-139456089D01*
X125931661Y-139456081D01*
X125749617Y-139316392D01*
X125550890Y-139201657D01*
X125550876Y-139201650D01*
X125338887Y-139113842D01*
X125311434Y-139106486D01*
X125117238Y-139054452D01*
X125079215Y-139049446D01*
X124889741Y-139024500D01*
X124889734Y-139024500D01*
X124660266Y-139024500D01*
X124660258Y-139024500D01*
X124458040Y-139051124D01*
X124432762Y-139054452D01*
X124432760Y-139054452D01*
X124432751Y-139054454D01*
X124307715Y-139087957D01*
X124237865Y-139086294D01*
X124187941Y-139055863D01*
X122510292Y-137378213D01*
X122510288Y-137378210D01*
X122379185Y-137290609D01*
X122379172Y-137290602D01*
X122233501Y-137230264D01*
X122233489Y-137230261D01*
X122078845Y-137199500D01*
X122078842Y-137199500D01*
X117388843Y-137199500D01*
X117231158Y-137199500D01*
X117231153Y-137199500D01*
X117076510Y-137230260D01*
X117076502Y-137230262D01*
X116930824Y-137290604D01*
X116930814Y-137290609D01*
X116799711Y-137378210D01*
X116799707Y-137378213D01*
X115974741Y-138203181D01*
X115913418Y-138236666D01*
X115887060Y-138239500D01*
X114451903Y-138239500D01*
X114218631Y-138276446D01*
X113994003Y-138349433D01*
X113783566Y-138456657D01*
X113674550Y-138535862D01*
X113592490Y-138595483D01*
X113592488Y-138595485D01*
X113592487Y-138595485D01*
X113425485Y-138762487D01*
X113425485Y-138762488D01*
X113425483Y-138762490D01*
X113383565Y-138820185D01*
X113286657Y-138953566D01*
X113179433Y-139164003D01*
X113106446Y-139388631D01*
X113069500Y-139621902D01*
X113069500Y-139648111D01*
X113049815Y-139715150D01*
X112997011Y-139760905D01*
X112927853Y-139770849D01*
X112864297Y-139741824D01*
X112857819Y-139735792D01*
X112752512Y-139630485D01*
X112752510Y-139630483D01*
X112561433Y-139491657D01*
X112350996Y-139384433D01*
X112126368Y-139311446D01*
X111893097Y-139274500D01*
X111893092Y-139274500D01*
X111656908Y-139274500D01*
X111656903Y-139274500D01*
X111423631Y-139311446D01*
X111199003Y-139384433D01*
X110988566Y-139491657D01*
X110895173Y-139559512D01*
X110797490Y-139630483D01*
X110797488Y-139630485D01*
X110797487Y-139630485D01*
X110630485Y-139797487D01*
X110630485Y-139797488D01*
X110630483Y-139797490D01*
X110626506Y-139802964D01*
X110491657Y-139988566D01*
X110384433Y-140199003D01*
X110311446Y-140423631D01*
X110274500Y-140656902D01*
X107274993Y-140656902D01*
X107238065Y-140423752D01*
X107165102Y-140199197D01*
X107057914Y-139988828D01*
X106919133Y-139797813D01*
X106752186Y-139630866D01*
X106561171Y-139492085D01*
X106350802Y-139384897D01*
X106126247Y-139311934D01*
X106025000Y-139295897D01*
X106025000Y-140359314D01*
X106020606Y-140354920D01*
X105929394Y-140302259D01*
X105827661Y-140275000D01*
X105722339Y-140275000D01*
X105620606Y-140302259D01*
X105529394Y-140354920D01*
X105525000Y-140359314D01*
X105525000Y-139295897D01*
X105423752Y-139311934D01*
X105199197Y-139384897D01*
X104988828Y-139492085D01*
X104797813Y-139630866D01*
X104630866Y-139797813D01*
X104492085Y-139988828D01*
X104384897Y-140199197D01*
X104311934Y-140423752D01*
X104275000Y-140656947D01*
X100500500Y-140656947D01*
X100500500Y-131182155D01*
X104060000Y-131182155D01*
X104060000Y-131830000D01*
X104976988Y-131830000D01*
X104944075Y-131887007D01*
X104910000Y-132014174D01*
X104910000Y-132145826D01*
X104944075Y-132272993D01*
X104976988Y-132330000D01*
X104060000Y-132330000D01*
X104060000Y-132977844D01*
X104066401Y-133037372D01*
X104066403Y-133037379D01*
X104116645Y-133172086D01*
X104116649Y-133172093D01*
X104202809Y-133287187D01*
X104202812Y-133287190D01*
X104317906Y-133373350D01*
X104317913Y-133373354D01*
X104452620Y-133423596D01*
X104452627Y-133423598D01*
X104512155Y-133429999D01*
X104512172Y-133430000D01*
X105160000Y-133430000D01*
X105160000Y-132513012D01*
X105217007Y-132545925D01*
X105344174Y-132580000D01*
X105475826Y-132580000D01*
X105602993Y-132545925D01*
X105660000Y-132513012D01*
X105660000Y-133430000D01*
X106307828Y-133430000D01*
X106307844Y-133429999D01*
X106367372Y-133423598D01*
X106367379Y-133423596D01*
X106502086Y-133373354D01*
X106502093Y-133373350D01*
X106617187Y-133287190D01*
X106617190Y-133287187D01*
X106708669Y-133164989D01*
X106711044Y-133166767D01*
X106749898Y-133127903D01*
X106818170Y-133113043D01*
X106883637Y-133137452D01*
X106897020Y-133149047D01*
X106972490Y-133224517D01*
X107163567Y-133363343D01*
X107183215Y-133373354D01*
X107374003Y-133470566D01*
X107374005Y-133470566D01*
X107374008Y-133470568D01*
X107494412Y-133509689D01*
X107598631Y-133543553D01*
X107831903Y-133580500D01*
X107831908Y-133580500D01*
X114552111Y-133580500D01*
X114589959Y-133587328D01*
X114589965Y-133587307D01*
X114590367Y-133587402D01*
X114595444Y-133588318D01*
X114597517Y-133589091D01*
X114597516Y-133589091D01*
X114604444Y-133589835D01*
X114657127Y-133595500D01*
X116482872Y-133595499D01*
X116542483Y-133589091D01*
X116677331Y-133538796D01*
X116792546Y-133452546D01*
X116878796Y-133337331D01*
X116922048Y-133221365D01*
X116963917Y-133165433D01*
X117029381Y-133141015D01*
X117097654Y-133155866D01*
X117125910Y-133177018D01*
X117220437Y-133271545D01*
X117394322Y-133397880D01*
X117457361Y-133430000D01*
X117585829Y-133495458D01*
X117585832Y-133495459D01*
X117733852Y-133543553D01*
X117790245Y-133561876D01*
X118002533Y-133595500D01*
X118002534Y-133595500D01*
X118217466Y-133595500D01*
X118217467Y-133595500D01*
X118429755Y-133561876D01*
X118429758Y-133561875D01*
X118429759Y-133561875D01*
X118634167Y-133495459D01*
X118634170Y-133495458D01*
X118683023Y-133470566D01*
X118825678Y-133397880D01*
X118999563Y-133271545D01*
X119151545Y-133119563D01*
X119277880Y-132945678D01*
X119277879Y-132945678D01*
X119279682Y-132943198D01*
X119335012Y-132900532D01*
X119404625Y-132894553D01*
X119466420Y-132927159D01*
X119480318Y-132943198D01*
X119482120Y-132945678D01*
X119608455Y-133119563D01*
X119760437Y-133271545D01*
X119934322Y-133397880D01*
X119997361Y-133430000D01*
X120125829Y-133495458D01*
X120125832Y-133495459D01*
X120273852Y-133543553D01*
X120330245Y-133561876D01*
X120542533Y-133595500D01*
X120542534Y-133595500D01*
X120757466Y-133595500D01*
X120757467Y-133595500D01*
X120969755Y-133561876D01*
X120969758Y-133561875D01*
X120969759Y-133561875D01*
X121174167Y-133495459D01*
X121174170Y-133495458D01*
X121223023Y-133470566D01*
X121365678Y-133397880D01*
X121539563Y-133271545D01*
X121691545Y-133119563D01*
X121817880Y-132945678D01*
X121817879Y-132945678D01*
X121819682Y-132943198D01*
X121875012Y-132900532D01*
X121944625Y-132894553D01*
X122006420Y-132927159D01*
X122020318Y-132943198D01*
X122022120Y-132945678D01*
X122148455Y-133119563D01*
X122300437Y-133271545D01*
X122474322Y-133397880D01*
X122537361Y-133430000D01*
X122665829Y-133495458D01*
X122665832Y-133495459D01*
X122813852Y-133543553D01*
X122870245Y-133561876D01*
X123082533Y-133595500D01*
X123082534Y-133595500D01*
X123297466Y-133595500D01*
X123297467Y-133595500D01*
X123509755Y-133561876D01*
X123509758Y-133561875D01*
X123509759Y-133561875D01*
X123714167Y-133495459D01*
X123714170Y-133495458D01*
X123763023Y-133470566D01*
X123905678Y-133397880D01*
X124079563Y-133271545D01*
X124231545Y-133119563D01*
X124357880Y-132945678D01*
X124455458Y-132754170D01*
X124521876Y-132549755D01*
X124555500Y-132337467D01*
X124555500Y-131822533D01*
X124521876Y-131610245D01*
X124521875Y-131610241D01*
X124521875Y-131610240D01*
X124455459Y-131405832D01*
X124455458Y-131405829D01*
X124367315Y-131232840D01*
X124357880Y-131214322D01*
X124231545Y-131040437D01*
X124079563Y-130888455D01*
X124058033Y-130872812D01*
X124041613Y-130860882D01*
X123998948Y-130805551D01*
X123990500Y-130760565D01*
X123990500Y-127995725D01*
X124010185Y-127928686D01*
X124052498Y-127888339D01*
X124164612Y-127823611D01*
X124346661Y-127683919D01*
X124346665Y-127683914D01*
X124346670Y-127683911D01*
X124508911Y-127521670D01*
X124508914Y-127521665D01*
X124508919Y-127521661D01*
X124648611Y-127339612D01*
X124763344Y-127140888D01*
X124851158Y-126928887D01*
X124910548Y-126707238D01*
X124940500Y-126479734D01*
X124940500Y-126250266D01*
X124910548Y-126022762D01*
X124851158Y-125801113D01*
X124763344Y-125589112D01*
X124648611Y-125390388D01*
X124648608Y-125390385D01*
X124648607Y-125390382D01*
X124508918Y-125208338D01*
X124508911Y-125208330D01*
X124346670Y-125046089D01*
X124346661Y-125046081D01*
X124164617Y-124906392D01*
X123965890Y-124791657D01*
X123965876Y-124791650D01*
X123753887Y-124703842D01*
X123532238Y-124644452D01*
X123494215Y-124639446D01*
X123304741Y-124614500D01*
X123304734Y-124614500D01*
X123075266Y-124614500D01*
X123075258Y-124614500D01*
X122858715Y-124643009D01*
X122847762Y-124644452D01*
X122754076Y-124669554D01*
X122626112Y-124703842D01*
X122414123Y-124791650D01*
X122414109Y-124791657D01*
X122215382Y-124906392D01*
X122033338Y-125046081D01*
X121871081Y-125208338D01*
X121731392Y-125390382D01*
X121616657Y-125589109D01*
X121616650Y-125589123D01*
X121528842Y-125801112D01*
X121469453Y-126022759D01*
X121469451Y-126022770D01*
X121439500Y-126250258D01*
X121439500Y-126479741D01*
X121464446Y-126669215D01*
X121469452Y-126707238D01*
X121469453Y-126707240D01*
X121528842Y-126928887D01*
X121616650Y-127140876D01*
X121616657Y-127140890D01*
X121731392Y-127339617D01*
X121871081Y-127521661D01*
X121871089Y-127521670D01*
X122033330Y-127683911D01*
X122033338Y-127683918D01*
X122215382Y-127823607D01*
X122215388Y-127823611D01*
X122327500Y-127888339D01*
X122375715Y-127938904D01*
X122389500Y-127995725D01*
X122389500Y-130760565D01*
X122369815Y-130827604D01*
X122338387Y-130860882D01*
X122300437Y-130888454D01*
X122148457Y-131040434D01*
X122148457Y-131040435D01*
X122148455Y-131040437D01*
X122051023Y-131174539D01*
X122020318Y-131216802D01*
X121964988Y-131259467D01*
X121895374Y-131265446D01*
X121833579Y-131232840D01*
X121819682Y-131216802D01*
X121794509Y-131182155D01*
X121691545Y-131040437D01*
X121539563Y-130888455D01*
X121365678Y-130762120D01*
X121362626Y-130760565D01*
X121235725Y-130695905D01*
X121184929Y-130647930D01*
X121168134Y-130580109D01*
X121190672Y-130513974D01*
X121204333Y-130497744D01*
X121271789Y-130430289D01*
X121359394Y-130299179D01*
X121419737Y-130153497D01*
X121450500Y-129998842D01*
X121450500Y-129841158D01*
X121450500Y-129841155D01*
X121450499Y-129841153D01*
X121419738Y-129686510D01*
X121419737Y-129686503D01*
X121419735Y-129686498D01*
X121359397Y-129540827D01*
X121359390Y-129540814D01*
X121271789Y-129409711D01*
X121271786Y-129409707D01*
X121160292Y-129298213D01*
X121160288Y-129298210D01*
X121029185Y-129210609D01*
X121029172Y-129210602D01*
X120883501Y-129150264D01*
X120883489Y-129150261D01*
X120728845Y-129119500D01*
X120728842Y-129119500D01*
X120571158Y-129119500D01*
X120571155Y-129119500D01*
X120416510Y-129150261D01*
X120416498Y-129150264D01*
X120270827Y-129210602D01*
X120270814Y-129210609D01*
X120139711Y-129298210D01*
X120139707Y-129298213D01*
X120028213Y-129409707D01*
X120028210Y-129409711D01*
X119940609Y-129540814D01*
X119940602Y-129540827D01*
X119880264Y-129686498D01*
X119880261Y-129686510D01*
X119849500Y-129841153D01*
X119849500Y-129848060D01*
X119829815Y-129915099D01*
X119777011Y-129960854D01*
X119707853Y-129970798D01*
X119644297Y-129941773D01*
X119637819Y-129935741D01*
X117100678Y-127398600D01*
X117067193Y-127337277D01*
X117072177Y-127267585D01*
X117080968Y-127248925D01*
X117143344Y-127140888D01*
X117231158Y-126928887D01*
X117290548Y-126707238D01*
X117320500Y-126479734D01*
X117320500Y-126250266D01*
X117290548Y-126022762D01*
X117231158Y-125801113D01*
X117143344Y-125589112D01*
X117028611Y-125390388D01*
X117028608Y-125390385D01*
X117028607Y-125390382D01*
X116888918Y-125208338D01*
X116888911Y-125208330D01*
X116726670Y-125046089D01*
X116726661Y-125046081D01*
X116544617Y-124906392D01*
X116345890Y-124791657D01*
X116345876Y-124791650D01*
X116133887Y-124703842D01*
X115912238Y-124644452D01*
X115874215Y-124639446D01*
X115684741Y-124614500D01*
X115684734Y-124614500D01*
X115455266Y-124614500D01*
X115455258Y-124614500D01*
X115238715Y-124643009D01*
X115227762Y-124644452D01*
X115134076Y-124669554D01*
X115006112Y-124703842D01*
X114794123Y-124791650D01*
X114794109Y-124791657D01*
X114595382Y-124906392D01*
X114413338Y-125046081D01*
X114251081Y-125208338D01*
X114111392Y-125390382D01*
X113996657Y-125589109D01*
X113996650Y-125589123D01*
X113908842Y-125801112D01*
X113849453Y-126022759D01*
X113849451Y-126022770D01*
X113819500Y-126250258D01*
X113819500Y-126479741D01*
X113844446Y-126669215D01*
X113849452Y-126707238D01*
X113849453Y-126707240D01*
X113908842Y-126928887D01*
X113996650Y-127140876D01*
X113996657Y-127140890D01*
X114111392Y-127339617D01*
X114251081Y-127521661D01*
X114251089Y-127521670D01*
X114413330Y-127683911D01*
X114413338Y-127683918D01*
X114595382Y-127823607D01*
X114595385Y-127823608D01*
X114595388Y-127823611D01*
X114794112Y-127938344D01*
X114794117Y-127938346D01*
X114794123Y-127938349D01*
X114885480Y-127976190D01*
X115006113Y-128026158D01*
X115227762Y-128085548D01*
X115455266Y-128115500D01*
X115502060Y-128115500D01*
X115569099Y-128135185D01*
X115589741Y-128151819D01*
X117832683Y-130394761D01*
X117866168Y-130456084D01*
X117861184Y-130525776D01*
X117819312Y-130581709D01*
X117783320Y-130600373D01*
X117585832Y-130664540D01*
X117585829Y-130664541D01*
X117394321Y-130762120D01*
X117220438Y-130888454D01*
X117125910Y-130982982D01*
X117064586Y-131016466D01*
X116994895Y-131011482D01*
X116938962Y-130969610D01*
X116922047Y-130938632D01*
X116878798Y-130822673D01*
X116878793Y-130822664D01*
X116792547Y-130707455D01*
X116792544Y-130707452D01*
X116677335Y-130621206D01*
X116677328Y-130621202D01*
X116542482Y-130570908D01*
X116542483Y-130570908D01*
X116482883Y-130564501D01*
X116482881Y-130564500D01*
X116482873Y-130564500D01*
X116482864Y-130564500D01*
X114657129Y-130564500D01*
X114657123Y-130564501D01*
X114597518Y-130570908D01*
X114595956Y-130571491D01*
X114595443Y-130571682D01*
X114590371Y-130572597D01*
X114589971Y-130572692D01*
X114589965Y-130572670D01*
X114552112Y-130579500D01*
X107831903Y-130579500D01*
X107598631Y-130616446D01*
X107374003Y-130689433D01*
X107163566Y-130796657D01*
X106972491Y-130935482D01*
X106897020Y-131010953D01*
X106835696Y-131044437D01*
X106766005Y-131039452D01*
X106710071Y-130997581D01*
X106706905Y-130992655D01*
X106617190Y-130872812D01*
X106617187Y-130872809D01*
X106502093Y-130786649D01*
X106502086Y-130786645D01*
X106367379Y-130736403D01*
X106367372Y-130736401D01*
X106307844Y-130730000D01*
X105660000Y-130730000D01*
X105660000Y-131646988D01*
X105602993Y-131614075D01*
X105475826Y-131580000D01*
X105344174Y-131580000D01*
X105217007Y-131614075D01*
X105160000Y-131646988D01*
X105160000Y-130730000D01*
X104512155Y-130730000D01*
X104452627Y-130736401D01*
X104452620Y-130736403D01*
X104317913Y-130786645D01*
X104317906Y-130786649D01*
X104202812Y-130872809D01*
X104202809Y-130872812D01*
X104116649Y-130987906D01*
X104116645Y-130987913D01*
X104066403Y-131122620D01*
X104066401Y-131122627D01*
X104060000Y-131182155D01*
X100500500Y-131182155D01*
X100500500Y-119752155D01*
X104060000Y-119752155D01*
X104060000Y-120400000D01*
X104976988Y-120400000D01*
X104944075Y-120457007D01*
X104910000Y-120584174D01*
X104910000Y-120715826D01*
X104944075Y-120842993D01*
X104976988Y-120900000D01*
X104060000Y-120900000D01*
X104060000Y-121547844D01*
X104066401Y-121607372D01*
X104066403Y-121607379D01*
X104116645Y-121742086D01*
X104116649Y-121742093D01*
X104202809Y-121857187D01*
X104202812Y-121857190D01*
X104317906Y-121943350D01*
X104317913Y-121943354D01*
X104452620Y-121993596D01*
X104452627Y-121993598D01*
X104512155Y-121999999D01*
X104512172Y-122000000D01*
X105160000Y-122000000D01*
X105160000Y-121083012D01*
X105217007Y-121115925D01*
X105344174Y-121150000D01*
X105475826Y-121150000D01*
X105602993Y-121115925D01*
X105660000Y-121083012D01*
X105660000Y-122000000D01*
X106307828Y-122000000D01*
X106307844Y-121999999D01*
X106367372Y-121993598D01*
X106367379Y-121993596D01*
X106502086Y-121943354D01*
X106502093Y-121943350D01*
X106617187Y-121857190D01*
X106617190Y-121857187D01*
X106708669Y-121734989D01*
X106711044Y-121736767D01*
X106749898Y-121697903D01*
X106818170Y-121683043D01*
X106883637Y-121707452D01*
X106897020Y-121719047D01*
X106972490Y-121794517D01*
X107163567Y-121933343D01*
X107183215Y-121943354D01*
X107374003Y-122040566D01*
X107374005Y-122040566D01*
X107374008Y-122040568D01*
X107494412Y-122079689D01*
X107598631Y-122113553D01*
X107831903Y-122150500D01*
X107831908Y-122150500D01*
X114552111Y-122150500D01*
X114589959Y-122157328D01*
X114589965Y-122157307D01*
X114590367Y-122157402D01*
X114595444Y-122158318D01*
X114597517Y-122159091D01*
X114597516Y-122159091D01*
X114604444Y-122159835D01*
X114657127Y-122165500D01*
X116482872Y-122165499D01*
X116542483Y-122159091D01*
X116677331Y-122108796D01*
X116792546Y-122022546D01*
X116878796Y-121907331D01*
X116922048Y-121791365D01*
X116963917Y-121735433D01*
X117029381Y-121711015D01*
X117097654Y-121725866D01*
X117125910Y-121747018D01*
X117220437Y-121841545D01*
X117394322Y-121967880D01*
X117457361Y-122000000D01*
X117585829Y-122065458D01*
X117585832Y-122065459D01*
X117733852Y-122113553D01*
X117790245Y-122131876D01*
X118002533Y-122165500D01*
X118002534Y-122165500D01*
X118217466Y-122165500D01*
X118217467Y-122165500D01*
X118429755Y-122131876D01*
X118429758Y-122131875D01*
X118429759Y-122131875D01*
X118634167Y-122065459D01*
X118634170Y-122065458D01*
X118683023Y-122040566D01*
X118825678Y-121967880D01*
X118999563Y-121841545D01*
X119151545Y-121689563D01*
X119277880Y-121515678D01*
X119277879Y-121515678D01*
X119279682Y-121513198D01*
X119335012Y-121470532D01*
X119404625Y-121464553D01*
X119466420Y-121497159D01*
X119480318Y-121513198D01*
X119482120Y-121515678D01*
X119608455Y-121689563D01*
X119760437Y-121841545D01*
X119934322Y-121967880D01*
X119997361Y-122000000D01*
X120125829Y-122065458D01*
X120125832Y-122065459D01*
X120273852Y-122113553D01*
X120330245Y-122131876D01*
X120542533Y-122165500D01*
X120542534Y-122165500D01*
X120757466Y-122165500D01*
X120757467Y-122165500D01*
X120969755Y-122131876D01*
X120969758Y-122131875D01*
X120969759Y-122131875D01*
X121174167Y-122065459D01*
X121174170Y-122065458D01*
X121223023Y-122040566D01*
X121365678Y-121967880D01*
X121539563Y-121841545D01*
X121691545Y-121689563D01*
X121817880Y-121515678D01*
X121817879Y-121515678D01*
X121819682Y-121513198D01*
X121875012Y-121470532D01*
X121944625Y-121464553D01*
X122006420Y-121497159D01*
X122020318Y-121513198D01*
X122022120Y-121515678D01*
X122148455Y-121689563D01*
X122300437Y-121841545D01*
X122474322Y-121967880D01*
X122537361Y-122000000D01*
X122665829Y-122065458D01*
X122665832Y-122065459D01*
X122813852Y-122113553D01*
X122870245Y-122131876D01*
X123082533Y-122165500D01*
X123082534Y-122165500D01*
X123297466Y-122165500D01*
X123297467Y-122165500D01*
X123509755Y-122131876D01*
X123509758Y-122131875D01*
X123509759Y-122131875D01*
X123714167Y-122065459D01*
X123714170Y-122065458D01*
X123763023Y-122040566D01*
X123905678Y-121967880D01*
X124079563Y-121841545D01*
X124231545Y-121689563D01*
X124357880Y-121515678D01*
X124455458Y-121324170D01*
X124521876Y-121119755D01*
X124555500Y-120907467D01*
X124555500Y-120392533D01*
X124521876Y-120180245D01*
X124521875Y-120180241D01*
X124521875Y-120180240D01*
X124455459Y-119975832D01*
X124455458Y-119975829D01*
X124367315Y-119802840D01*
X124357880Y-119784322D01*
X124231545Y-119610437D01*
X124079563Y-119458455D01*
X124058033Y-119442812D01*
X124041613Y-119430882D01*
X123998948Y-119375551D01*
X123990500Y-119330565D01*
X123990500Y-117200725D01*
X124010185Y-117133686D01*
X124052498Y-117093339D01*
X124164612Y-117028611D01*
X124346661Y-116888919D01*
X124346665Y-116888914D01*
X124346670Y-116888911D01*
X124508911Y-116726670D01*
X124508914Y-116726665D01*
X124508919Y-116726661D01*
X124648611Y-116544612D01*
X124763344Y-116345888D01*
X124851158Y-116133887D01*
X124910548Y-115912238D01*
X124940500Y-115684734D01*
X124940500Y-115455266D01*
X124910548Y-115227762D01*
X124851158Y-115006113D01*
X124763344Y-114794112D01*
X124648611Y-114595388D01*
X124648608Y-114595385D01*
X124648607Y-114595382D01*
X124508918Y-114413338D01*
X124508911Y-114413330D01*
X124346670Y-114251089D01*
X124346661Y-114251081D01*
X124164617Y-114111392D01*
X123965890Y-113996657D01*
X123965876Y-113996650D01*
X123753887Y-113908842D01*
X123532238Y-113849452D01*
X123494215Y-113844446D01*
X123304741Y-113819500D01*
X123304734Y-113819500D01*
X123075266Y-113819500D01*
X123075258Y-113819500D01*
X122858715Y-113848009D01*
X122847762Y-113849452D01*
X122754076Y-113874554D01*
X122626112Y-113908842D01*
X122414123Y-113996650D01*
X122414109Y-113996657D01*
X122215382Y-114111392D01*
X122033338Y-114251081D01*
X121871081Y-114413338D01*
X121731392Y-114595382D01*
X121616657Y-114794109D01*
X121616650Y-114794123D01*
X121528842Y-115006112D01*
X121469453Y-115227759D01*
X121469451Y-115227770D01*
X121439500Y-115455258D01*
X121439500Y-115684741D01*
X121464446Y-115874215D01*
X121469452Y-115912238D01*
X121469453Y-115912240D01*
X121528842Y-116133887D01*
X121616650Y-116345876D01*
X121616657Y-116345890D01*
X121731392Y-116544617D01*
X121871081Y-116726661D01*
X121871089Y-116726670D01*
X122033330Y-116888911D01*
X122033338Y-116888918D01*
X122215382Y-117028607D01*
X122215388Y-117028611D01*
X122327500Y-117093339D01*
X122375715Y-117143904D01*
X122389500Y-117200725D01*
X122389500Y-119330565D01*
X122369815Y-119397604D01*
X122338387Y-119430882D01*
X122300437Y-119458454D01*
X122148457Y-119610434D01*
X122148457Y-119610435D01*
X122148455Y-119610437D01*
X122051023Y-119744539D01*
X122020318Y-119786802D01*
X121964988Y-119829467D01*
X121895374Y-119835446D01*
X121833579Y-119802840D01*
X121819682Y-119786802D01*
X121794509Y-119752155D01*
X121691545Y-119610437D01*
X121539563Y-119458455D01*
X121365678Y-119332120D01*
X121362626Y-119330565D01*
X121235725Y-119265905D01*
X121184929Y-119217930D01*
X121168134Y-119150109D01*
X121190672Y-119083974D01*
X121204333Y-119067744D01*
X121271789Y-119000289D01*
X121359394Y-118869179D01*
X121419737Y-118723497D01*
X121450500Y-118568842D01*
X121450500Y-118411158D01*
X121450500Y-118411155D01*
X121450499Y-118411153D01*
X121419738Y-118256510D01*
X121419737Y-118256503D01*
X121419735Y-118256498D01*
X121359397Y-118110827D01*
X121359390Y-118110814D01*
X121271789Y-117979711D01*
X121271786Y-117979707D01*
X121160292Y-117868213D01*
X121160288Y-117868210D01*
X121029185Y-117780609D01*
X121029172Y-117780602D01*
X120883501Y-117720264D01*
X120883489Y-117720261D01*
X120728845Y-117689500D01*
X120728842Y-117689500D01*
X120571158Y-117689500D01*
X120571155Y-117689500D01*
X120416510Y-117720261D01*
X120416498Y-117720264D01*
X120270827Y-117780602D01*
X120270814Y-117780609D01*
X120139711Y-117868210D01*
X120139707Y-117868213D01*
X120028213Y-117979707D01*
X120028210Y-117979711D01*
X119940609Y-118110814D01*
X119940602Y-118110827D01*
X119880264Y-118256498D01*
X119880261Y-118256510D01*
X119849500Y-118411153D01*
X119849500Y-118418060D01*
X119829815Y-118485099D01*
X119777011Y-118530854D01*
X119707853Y-118540798D01*
X119644297Y-118511773D01*
X119637819Y-118505741D01*
X117289136Y-116157058D01*
X117255651Y-116095735D01*
X117257042Y-116037284D01*
X117257568Y-116035320D01*
X117290548Y-115912238D01*
X117320500Y-115684734D01*
X117320500Y-115455266D01*
X117290548Y-115227762D01*
X117231158Y-115006113D01*
X117143344Y-114794112D01*
X117028611Y-114595388D01*
X117028608Y-114595385D01*
X117028607Y-114595382D01*
X116888918Y-114413338D01*
X116888911Y-114413330D01*
X116726670Y-114251089D01*
X116726661Y-114251081D01*
X116544617Y-114111392D01*
X116345890Y-113996657D01*
X116345876Y-113996650D01*
X116133887Y-113908842D01*
X115912238Y-113849452D01*
X115874215Y-113844446D01*
X115684741Y-113819500D01*
X115684734Y-113819500D01*
X115455266Y-113819500D01*
X115455258Y-113819500D01*
X115238715Y-113848009D01*
X115227762Y-113849452D01*
X115134076Y-113874554D01*
X115006112Y-113908842D01*
X114794123Y-113996650D01*
X114794109Y-113996657D01*
X114595382Y-114111392D01*
X114413338Y-114251081D01*
X114251081Y-114413338D01*
X114111392Y-114595382D01*
X113996657Y-114794109D01*
X113996650Y-114794123D01*
X113908842Y-115006112D01*
X113849453Y-115227759D01*
X113849451Y-115227770D01*
X113819500Y-115455258D01*
X113819500Y-115684741D01*
X113844446Y-115874215D01*
X113849452Y-115912238D01*
X113849453Y-115912240D01*
X113908842Y-116133887D01*
X113996650Y-116345876D01*
X113996657Y-116345890D01*
X114111392Y-116544617D01*
X114251081Y-116726661D01*
X114251089Y-116726670D01*
X114413330Y-116888911D01*
X114413338Y-116888918D01*
X114595382Y-117028607D01*
X114595385Y-117028608D01*
X114595388Y-117028611D01*
X114794112Y-117143344D01*
X114794117Y-117143346D01*
X114794123Y-117143349D01*
X114885480Y-117181190D01*
X115006113Y-117231158D01*
X115227762Y-117290548D01*
X115455266Y-117320500D01*
X115455273Y-117320500D01*
X115684727Y-117320500D01*
X115684734Y-117320500D01*
X115912238Y-117290548D01*
X116037284Y-117257042D01*
X116107134Y-117258705D01*
X116157058Y-117289136D01*
X117832683Y-118964761D01*
X117866168Y-119026084D01*
X117861184Y-119095776D01*
X117819312Y-119151709D01*
X117783320Y-119170373D01*
X117585832Y-119234540D01*
X117585829Y-119234541D01*
X117394321Y-119332120D01*
X117220438Y-119458454D01*
X117125910Y-119552982D01*
X117064586Y-119586466D01*
X116994895Y-119581482D01*
X116938962Y-119539610D01*
X116922047Y-119508632D01*
X116878798Y-119392673D01*
X116878793Y-119392664D01*
X116792547Y-119277455D01*
X116792544Y-119277452D01*
X116677335Y-119191206D01*
X116677328Y-119191202D01*
X116542482Y-119140908D01*
X116542483Y-119140908D01*
X116482883Y-119134501D01*
X116482881Y-119134500D01*
X116482873Y-119134500D01*
X116482864Y-119134500D01*
X114657129Y-119134500D01*
X114657123Y-119134501D01*
X114597518Y-119140908D01*
X114595956Y-119141491D01*
X114595443Y-119141682D01*
X114590371Y-119142597D01*
X114589971Y-119142692D01*
X114589965Y-119142670D01*
X114552112Y-119149500D01*
X107831903Y-119149500D01*
X107598631Y-119186446D01*
X107374003Y-119259433D01*
X107163566Y-119366657D01*
X106972491Y-119505482D01*
X106897020Y-119580953D01*
X106835696Y-119614437D01*
X106766005Y-119609452D01*
X106710071Y-119567581D01*
X106706905Y-119562655D01*
X106617190Y-119442812D01*
X106617187Y-119442809D01*
X106502093Y-119356649D01*
X106502086Y-119356645D01*
X106367379Y-119306403D01*
X106367372Y-119306401D01*
X106307844Y-119300000D01*
X105660000Y-119300000D01*
X105660000Y-120216988D01*
X105602993Y-120184075D01*
X105475826Y-120150000D01*
X105344174Y-120150000D01*
X105217007Y-120184075D01*
X105160000Y-120216988D01*
X105160000Y-119300000D01*
X104512155Y-119300000D01*
X104452627Y-119306401D01*
X104452620Y-119306403D01*
X104317913Y-119356645D01*
X104317906Y-119356649D01*
X104202812Y-119442809D01*
X104202809Y-119442812D01*
X104116649Y-119557906D01*
X104116645Y-119557913D01*
X104066403Y-119692620D01*
X104066401Y-119692627D01*
X104060000Y-119752155D01*
X100500500Y-119752155D01*
X100500500Y-108957155D01*
X104060000Y-108957155D01*
X104060000Y-109605000D01*
X104976988Y-109605000D01*
X104944075Y-109662007D01*
X104910000Y-109789174D01*
X104910000Y-109920826D01*
X104944075Y-110047993D01*
X104976988Y-110105000D01*
X104060000Y-110105000D01*
X104060000Y-110752844D01*
X104066401Y-110812372D01*
X104066403Y-110812379D01*
X104116645Y-110947086D01*
X104116649Y-110947093D01*
X104202809Y-111062187D01*
X104202812Y-111062190D01*
X104317906Y-111148350D01*
X104317913Y-111148354D01*
X104452620Y-111198596D01*
X104452627Y-111198598D01*
X104512155Y-111204999D01*
X104512172Y-111205000D01*
X105160000Y-111205000D01*
X105160000Y-110288012D01*
X105217007Y-110320925D01*
X105344174Y-110355000D01*
X105475826Y-110355000D01*
X105602993Y-110320925D01*
X105660000Y-110288012D01*
X105660000Y-111205000D01*
X106307828Y-111205000D01*
X106307844Y-111204999D01*
X106367372Y-111198598D01*
X106367379Y-111198596D01*
X106502086Y-111148354D01*
X106502093Y-111148350D01*
X106617187Y-111062190D01*
X106617190Y-111062187D01*
X106708669Y-110939989D01*
X106711044Y-110941767D01*
X106749898Y-110902903D01*
X106818170Y-110888043D01*
X106883637Y-110912452D01*
X106897020Y-110924047D01*
X106972490Y-110999517D01*
X107163567Y-111138343D01*
X107183215Y-111148354D01*
X107374003Y-111245566D01*
X107374005Y-111245566D01*
X107374008Y-111245568D01*
X107494412Y-111284689D01*
X107598631Y-111318553D01*
X107831903Y-111355500D01*
X107831908Y-111355500D01*
X114552111Y-111355500D01*
X114589959Y-111362328D01*
X114589965Y-111362307D01*
X114590367Y-111362402D01*
X114595444Y-111363318D01*
X114597517Y-111364091D01*
X114597516Y-111364091D01*
X114604444Y-111364835D01*
X114657127Y-111370500D01*
X116482872Y-111370499D01*
X116542483Y-111364091D01*
X116677331Y-111313796D01*
X116792546Y-111227546D01*
X116878796Y-111112331D01*
X116922048Y-110996365D01*
X116963917Y-110940433D01*
X117029381Y-110916015D01*
X117097654Y-110930866D01*
X117125910Y-110952018D01*
X117220437Y-111046545D01*
X117394322Y-111172880D01*
X117457361Y-111205000D01*
X117585829Y-111270458D01*
X117585832Y-111270459D01*
X117733852Y-111318553D01*
X117790245Y-111336876D01*
X118002533Y-111370500D01*
X118002534Y-111370500D01*
X118217466Y-111370500D01*
X118217467Y-111370500D01*
X118429755Y-111336876D01*
X118429758Y-111336875D01*
X118429759Y-111336875D01*
X118634167Y-111270459D01*
X118634170Y-111270458D01*
X118683023Y-111245566D01*
X118825678Y-111172880D01*
X118999563Y-111046545D01*
X119151545Y-110894563D01*
X119277880Y-110720678D01*
X119277879Y-110720678D01*
X119279682Y-110718198D01*
X119335012Y-110675532D01*
X119404625Y-110669553D01*
X119466420Y-110702159D01*
X119480318Y-110718198D01*
X119482120Y-110720678D01*
X119608455Y-110894563D01*
X119760437Y-111046545D01*
X119934322Y-111172880D01*
X119997361Y-111205000D01*
X120125829Y-111270458D01*
X120125832Y-111270459D01*
X120273852Y-111318553D01*
X120330245Y-111336876D01*
X120542533Y-111370500D01*
X120542534Y-111370500D01*
X120757466Y-111370500D01*
X120757467Y-111370500D01*
X120969755Y-111336876D01*
X120969758Y-111336875D01*
X120969759Y-111336875D01*
X121174167Y-111270459D01*
X121174170Y-111270458D01*
X121223023Y-111245566D01*
X121365678Y-111172880D01*
X121539563Y-111046545D01*
X121691545Y-110894563D01*
X121817880Y-110720678D01*
X121817879Y-110720678D01*
X121819682Y-110718198D01*
X121875012Y-110675532D01*
X121944625Y-110669553D01*
X122006420Y-110702159D01*
X122020318Y-110718198D01*
X122022120Y-110720678D01*
X122148455Y-110894563D01*
X122300437Y-111046545D01*
X122474322Y-111172880D01*
X122537361Y-111205000D01*
X122665829Y-111270458D01*
X122665832Y-111270459D01*
X122813852Y-111318553D01*
X122870245Y-111336876D01*
X123082533Y-111370500D01*
X123082534Y-111370500D01*
X123297466Y-111370500D01*
X123297467Y-111370500D01*
X123509755Y-111336876D01*
X123509758Y-111336875D01*
X123509759Y-111336875D01*
X123714167Y-111270459D01*
X123714170Y-111270458D01*
X123763023Y-111245566D01*
X123905678Y-111172880D01*
X124079563Y-111046545D01*
X124231545Y-110894563D01*
X124357880Y-110720678D01*
X124455458Y-110529170D01*
X124521876Y-110324755D01*
X124555500Y-110112467D01*
X124555500Y-109597533D01*
X124521876Y-109385245D01*
X124521875Y-109385241D01*
X124521875Y-109385240D01*
X124455459Y-109180832D01*
X124455458Y-109180829D01*
X124367315Y-109007840D01*
X124357880Y-108989322D01*
X124231545Y-108815437D01*
X124079563Y-108663455D01*
X124058033Y-108647812D01*
X124041613Y-108635882D01*
X123998948Y-108580551D01*
X123990500Y-108535565D01*
X123990500Y-106405725D01*
X124010185Y-106338686D01*
X124052498Y-106298339D01*
X124164612Y-106233611D01*
X124346661Y-106093919D01*
X124346665Y-106093914D01*
X124346670Y-106093911D01*
X124508911Y-105931670D01*
X124508914Y-105931665D01*
X124508919Y-105931661D01*
X124648611Y-105749612D01*
X124763344Y-105550888D01*
X124851158Y-105338887D01*
X124910548Y-105117238D01*
X124940500Y-104889734D01*
X124940500Y-104660266D01*
X124910548Y-104432762D01*
X124851158Y-104211113D01*
X124763344Y-103999112D01*
X124648611Y-103800388D01*
X124648608Y-103800385D01*
X124648607Y-103800382D01*
X124508918Y-103618338D01*
X124508911Y-103618330D01*
X124346670Y-103456089D01*
X124346661Y-103456081D01*
X124164617Y-103316392D01*
X123965890Y-103201657D01*
X123965876Y-103201650D01*
X123753887Y-103113842D01*
X123532238Y-103054452D01*
X123494215Y-103049446D01*
X123304741Y-103024500D01*
X123304734Y-103024500D01*
X123075266Y-103024500D01*
X123075258Y-103024500D01*
X122858715Y-103053009D01*
X122847762Y-103054452D01*
X122754076Y-103079554D01*
X122626112Y-103113842D01*
X122414123Y-103201650D01*
X122414109Y-103201657D01*
X122215382Y-103316392D01*
X122033338Y-103456081D01*
X121871081Y-103618338D01*
X121731392Y-103800382D01*
X121616657Y-103999109D01*
X121616650Y-103999123D01*
X121528842Y-104211112D01*
X121469453Y-104432759D01*
X121469451Y-104432770D01*
X121439500Y-104660258D01*
X121439500Y-104889741D01*
X121464446Y-105079215D01*
X121469452Y-105117238D01*
X121469453Y-105117240D01*
X121528842Y-105338887D01*
X121616650Y-105550876D01*
X121616657Y-105550890D01*
X121731392Y-105749617D01*
X121871081Y-105931661D01*
X121871089Y-105931670D01*
X122033330Y-106093911D01*
X122033338Y-106093918D01*
X122215382Y-106233607D01*
X122215388Y-106233611D01*
X122327500Y-106298339D01*
X122375715Y-106348904D01*
X122389500Y-106405725D01*
X122389500Y-108535565D01*
X122369815Y-108602604D01*
X122338387Y-108635882D01*
X122300437Y-108663454D01*
X122148457Y-108815434D01*
X122148457Y-108815435D01*
X122148455Y-108815437D01*
X122051023Y-108949539D01*
X122020318Y-108991802D01*
X121964988Y-109034467D01*
X121895374Y-109040446D01*
X121833579Y-109007840D01*
X121819682Y-108991802D01*
X121794509Y-108957155D01*
X121691545Y-108815437D01*
X121539563Y-108663455D01*
X121365678Y-108537120D01*
X121362626Y-108535565D01*
X121235725Y-108470905D01*
X121184929Y-108422930D01*
X121168134Y-108355109D01*
X121190672Y-108288974D01*
X121204333Y-108272744D01*
X121271789Y-108205289D01*
X121359394Y-108074179D01*
X121419737Y-107928497D01*
X121450500Y-107773842D01*
X121450500Y-107616158D01*
X121450500Y-107616155D01*
X121450499Y-107616153D01*
X121419738Y-107461510D01*
X121419737Y-107461503D01*
X121419735Y-107461498D01*
X121359397Y-107315827D01*
X121359390Y-107315814D01*
X121271789Y-107184711D01*
X121271786Y-107184707D01*
X121160292Y-107073213D01*
X121160288Y-107073210D01*
X121029185Y-106985609D01*
X121029172Y-106985602D01*
X120883501Y-106925264D01*
X120883489Y-106925261D01*
X120728845Y-106894500D01*
X120728842Y-106894500D01*
X120571158Y-106894500D01*
X120571155Y-106894500D01*
X120416510Y-106925261D01*
X120416498Y-106925264D01*
X120270827Y-106985602D01*
X120270814Y-106985609D01*
X120139711Y-107073210D01*
X120139707Y-107073213D01*
X120028213Y-107184707D01*
X120028210Y-107184711D01*
X119940609Y-107315814D01*
X119940602Y-107315827D01*
X119880264Y-107461498D01*
X119880261Y-107461510D01*
X119849500Y-107616153D01*
X119849500Y-107623060D01*
X119829815Y-107690099D01*
X119777011Y-107735854D01*
X119707853Y-107745798D01*
X119644297Y-107716773D01*
X119637819Y-107710741D01*
X117289136Y-105362058D01*
X117255651Y-105300735D01*
X117257042Y-105242284D01*
X117257568Y-105240320D01*
X117290548Y-105117238D01*
X117320500Y-104889734D01*
X117320500Y-104660266D01*
X117290548Y-104432762D01*
X117231158Y-104211113D01*
X117143344Y-103999112D01*
X117028611Y-103800388D01*
X117028608Y-103800385D01*
X117028607Y-103800382D01*
X116888918Y-103618338D01*
X116888911Y-103618330D01*
X116726670Y-103456089D01*
X116726661Y-103456081D01*
X116544617Y-103316392D01*
X116345890Y-103201657D01*
X116345876Y-103201650D01*
X116133887Y-103113842D01*
X115912238Y-103054452D01*
X115874215Y-103049446D01*
X115684741Y-103024500D01*
X115684734Y-103024500D01*
X115455266Y-103024500D01*
X115455258Y-103024500D01*
X115238715Y-103053009D01*
X115227762Y-103054452D01*
X115134076Y-103079554D01*
X115006112Y-103113842D01*
X114794123Y-103201650D01*
X114794109Y-103201657D01*
X114595382Y-103316392D01*
X114413338Y-103456081D01*
X114251081Y-103618338D01*
X114111392Y-103800382D01*
X113996657Y-103999109D01*
X113996650Y-103999123D01*
X113908842Y-104211112D01*
X113849453Y-104432759D01*
X113849451Y-104432770D01*
X113819500Y-104660258D01*
X113819500Y-104889741D01*
X113844446Y-105079215D01*
X113849452Y-105117238D01*
X113849453Y-105117240D01*
X113908842Y-105338887D01*
X113996650Y-105550876D01*
X113996657Y-105550890D01*
X114111392Y-105749617D01*
X114251081Y-105931661D01*
X114251089Y-105931670D01*
X114413330Y-106093911D01*
X114413338Y-106093918D01*
X114595382Y-106233607D01*
X114595385Y-106233608D01*
X114595388Y-106233611D01*
X114794112Y-106348344D01*
X114794117Y-106348346D01*
X114794123Y-106348349D01*
X114885480Y-106386190D01*
X115006113Y-106436158D01*
X115227762Y-106495548D01*
X115455266Y-106525500D01*
X115455273Y-106525500D01*
X115684727Y-106525500D01*
X115684734Y-106525500D01*
X115912238Y-106495548D01*
X116037284Y-106462042D01*
X116107134Y-106463705D01*
X116157058Y-106494136D01*
X117832683Y-108169761D01*
X117866168Y-108231084D01*
X117861184Y-108300776D01*
X117819312Y-108356709D01*
X117783320Y-108375373D01*
X117585832Y-108439540D01*
X117585829Y-108439541D01*
X117394321Y-108537120D01*
X117220438Y-108663454D01*
X117125910Y-108757982D01*
X117064586Y-108791466D01*
X116994895Y-108786482D01*
X116938962Y-108744610D01*
X116922047Y-108713632D01*
X116878798Y-108597673D01*
X116878793Y-108597664D01*
X116792547Y-108482455D01*
X116792544Y-108482452D01*
X116677335Y-108396206D01*
X116677328Y-108396202D01*
X116542482Y-108345908D01*
X116542483Y-108345908D01*
X116482883Y-108339501D01*
X116482881Y-108339500D01*
X116482873Y-108339500D01*
X116482864Y-108339500D01*
X114657129Y-108339500D01*
X114657123Y-108339501D01*
X114597518Y-108345908D01*
X114595956Y-108346491D01*
X114595443Y-108346682D01*
X114590371Y-108347597D01*
X114589971Y-108347692D01*
X114589965Y-108347670D01*
X114552112Y-108354500D01*
X107831903Y-108354500D01*
X107598631Y-108391446D01*
X107374003Y-108464433D01*
X107163566Y-108571657D01*
X106972491Y-108710482D01*
X106897020Y-108785953D01*
X106835696Y-108819437D01*
X106766005Y-108814452D01*
X106710071Y-108772581D01*
X106706905Y-108767655D01*
X106617190Y-108647812D01*
X106617187Y-108647809D01*
X106502093Y-108561649D01*
X106502086Y-108561645D01*
X106367379Y-108511403D01*
X106367372Y-108511401D01*
X106307844Y-108505000D01*
X105660000Y-108505000D01*
X105660000Y-109421988D01*
X105602993Y-109389075D01*
X105475826Y-109355000D01*
X105344174Y-109355000D01*
X105217007Y-109389075D01*
X105160000Y-109421988D01*
X105160000Y-108505000D01*
X104512155Y-108505000D01*
X104452627Y-108511401D01*
X104452620Y-108511403D01*
X104317913Y-108561645D01*
X104317906Y-108561649D01*
X104202812Y-108647809D01*
X104202809Y-108647812D01*
X104116649Y-108762906D01*
X104116645Y-108762913D01*
X104066403Y-108897620D01*
X104066401Y-108897627D01*
X104060000Y-108957155D01*
X100500500Y-108957155D01*
X100500500Y-100624500D01*
X100520185Y-100557461D01*
X100572989Y-100511706D01*
X100624500Y-100500500D01*
X129375500Y-100500500D01*
X129442539Y-100520185D01*
G37*
%TD.AperFunction*%
%TD*%
M02*
