%TF.GenerationSoftware,KiCad,Pcbnew,10.0.0*%
%TF.CreationDate,2026-09-05T18:47:35+02:00*%
%TF.ProjectId,fanpcb,66616e70-6362-42e6-9b69-6361645f7063,rev?*%
%TF.SameCoordinates,Original*%
%TF.FileFunction,Legend,Top*%
%TF.FilePolarity,Positive*%
%FSLAX46Y46*%
G04 Gerber Fmt 4.6, Leading zero omitted, Abs format (unit mm)*
G04 Created by KiCad (PCBNEW 10.0.0) date 2026-09-05 18:47:35*
%MOMM*%
%LPD*%
G01*
G04 APERTURE LIST*
%ADD10C,0.100000*%
%ADD11C,0.150000*%
%ADD12C,0.120000*%
%ADD13C,0.127000*%
G04 APERTURE END LIST*
D10*
X102000000Y-102000000D02*
X128000000Y-102000000D01*
X102000000Y-150000000D02*
X102000000Y-102000000D01*
X128000000Y-150000000D02*
X128000000Y-102000000D01*
D11*
X126819819Y-128245951D02*
X125819819Y-128245951D01*
X125819819Y-128245951D02*
X125819819Y-127864999D01*
X125819819Y-127864999D02*
X125867438Y-127769761D01*
X125867438Y-127769761D02*
X125915057Y-127722142D01*
X125915057Y-127722142D02*
X126010295Y-127674523D01*
X126010295Y-127674523D02*
X126153152Y-127674523D01*
X126153152Y-127674523D02*
X126248390Y-127722142D01*
X126248390Y-127722142D02*
X126296009Y-127769761D01*
X126296009Y-127769761D02*
X126343628Y-127864999D01*
X126343628Y-127864999D02*
X126343628Y-128245951D01*
X125819819Y-127341189D02*
X126819819Y-127103094D01*
X126819819Y-127103094D02*
X126105533Y-126912618D01*
X126105533Y-126912618D02*
X126819819Y-126722142D01*
X126819819Y-126722142D02*
X125819819Y-126484047D01*
X126819819Y-126103094D02*
X125819819Y-126103094D01*
X125819819Y-126103094D02*
X126534104Y-125769761D01*
X126534104Y-125769761D02*
X125819819Y-125436428D01*
X125819819Y-125436428D02*
X126819819Y-125436428D01*
X125819819Y-125055475D02*
X125819819Y-124436428D01*
X125819819Y-124436428D02*
X126200771Y-124769761D01*
X126200771Y-124769761D02*
X126200771Y-124626904D01*
X126200771Y-124626904D02*
X126248390Y-124531666D01*
X126248390Y-124531666D02*
X126296009Y-124484047D01*
X126296009Y-124484047D02*
X126391247Y-124436428D01*
X126391247Y-124436428D02*
X126629342Y-124436428D01*
X126629342Y-124436428D02*
X126724580Y-124484047D01*
X126724580Y-124484047D02*
X126772200Y-124531666D01*
X126772200Y-124531666D02*
X126819819Y-124626904D01*
X126819819Y-124626904D02*
X126819819Y-124912618D01*
X126819819Y-124912618D02*
X126772200Y-125007856D01*
X126772200Y-125007856D02*
X126724580Y-125055475D01*
X126821819Y-117450951D02*
X125821819Y-117450951D01*
X125821819Y-117450951D02*
X125821819Y-117069999D01*
X125821819Y-117069999D02*
X125869438Y-116974761D01*
X125869438Y-116974761D02*
X125917057Y-116927142D01*
X125917057Y-116927142D02*
X126012295Y-116879523D01*
X126012295Y-116879523D02*
X126155152Y-116879523D01*
X126155152Y-116879523D02*
X126250390Y-116927142D01*
X126250390Y-116927142D02*
X126298009Y-116974761D01*
X126298009Y-116974761D02*
X126345628Y-117069999D01*
X126345628Y-117069999D02*
X126345628Y-117450951D01*
X125821819Y-116546189D02*
X126821819Y-116308094D01*
X126821819Y-116308094D02*
X126107533Y-116117618D01*
X126107533Y-116117618D02*
X126821819Y-115927142D01*
X126821819Y-115927142D02*
X125821819Y-115689047D01*
X126821819Y-115308094D02*
X125821819Y-115308094D01*
X125821819Y-115308094D02*
X126536104Y-114974761D01*
X126536104Y-114974761D02*
X125821819Y-114641428D01*
X125821819Y-114641428D02*
X126821819Y-114641428D01*
X125917057Y-114212856D02*
X125869438Y-114165237D01*
X125869438Y-114165237D02*
X125821819Y-114069999D01*
X125821819Y-114069999D02*
X125821819Y-113831904D01*
X125821819Y-113831904D02*
X125869438Y-113736666D01*
X125869438Y-113736666D02*
X125917057Y-113689047D01*
X125917057Y-113689047D02*
X126012295Y-113641428D01*
X126012295Y-113641428D02*
X126107533Y-113641428D01*
X126107533Y-113641428D02*
X126250390Y-113689047D01*
X126250390Y-113689047D02*
X126821819Y-114260475D01*
X126821819Y-114260475D02*
X126821819Y-113641428D01*
X122632143Y-138081819D02*
X123203571Y-138081819D01*
X122917857Y-139081819D02*
X122917857Y-138081819D01*
X124060714Y-139081819D02*
X123489286Y-139081819D01*
X123775000Y-139081819D02*
X123775000Y-138081819D01*
X123775000Y-138081819D02*
X123679762Y-138224676D01*
X123679762Y-138224676D02*
X123584524Y-138319914D01*
X123584524Y-138319914D02*
X123489286Y-138367533D01*
X124441667Y-138177057D02*
X124489286Y-138129438D01*
X124489286Y-138129438D02*
X124584524Y-138081819D01*
X124584524Y-138081819D02*
X124822619Y-138081819D01*
X124822619Y-138081819D02*
X124917857Y-138129438D01*
X124917857Y-138129438D02*
X124965476Y-138177057D01*
X124965476Y-138177057D02*
X125013095Y-138272295D01*
X125013095Y-138272295D02*
X125013095Y-138367533D01*
X125013095Y-138367533D02*
X124965476Y-138510390D01*
X124965476Y-138510390D02*
X124394048Y-139081819D01*
X124394048Y-139081819D02*
X125013095Y-139081819D01*
X125298810Y-138081819D02*
X125632143Y-139081819D01*
X125632143Y-139081819D02*
X125965476Y-138081819D01*
X126822619Y-139081819D02*
X126251191Y-139081819D01*
X126536905Y-139081819D02*
X126536905Y-138081819D01*
X126536905Y-138081819D02*
X126441667Y-138224676D01*
X126441667Y-138224676D02*
X126346429Y-138319914D01*
X126346429Y-138319914D02*
X126251191Y-138367533D01*
X125555476Y-132534819D02*
X125555476Y-131534819D01*
X125555476Y-131534819D02*
X125888809Y-132249104D01*
X125888809Y-132249104D02*
X126222142Y-131534819D01*
X126222142Y-131534819D02*
X126222142Y-132534819D01*
X126603095Y-131534819D02*
X127222142Y-131534819D01*
X127222142Y-131534819D02*
X126888809Y-131915771D01*
X126888809Y-131915771D02*
X127031666Y-131915771D01*
X127031666Y-131915771D02*
X127126904Y-131963390D01*
X127126904Y-131963390D02*
X127174523Y-132011009D01*
X127174523Y-132011009D02*
X127222142Y-132106247D01*
X127222142Y-132106247D02*
X127222142Y-132344342D01*
X127222142Y-132344342D02*
X127174523Y-132439580D01*
X127174523Y-132439580D02*
X127126904Y-132487200D01*
X127126904Y-132487200D02*
X127031666Y-132534819D01*
X127031666Y-132534819D02*
X126745952Y-132534819D01*
X126745952Y-132534819D02*
X126650714Y-132487200D01*
X126650714Y-132487200D02*
X126603095Y-132439580D01*
X102668095Y-115454819D02*
X102668095Y-114454819D01*
X102668095Y-114931009D02*
X103239523Y-114931009D01*
X103239523Y-115454819D02*
X103239523Y-114454819D01*
X104239523Y-115454819D02*
X103668095Y-115454819D01*
X103953809Y-115454819D02*
X103953809Y-114454819D01*
X103953809Y-114454819D02*
X103858571Y-114597676D01*
X103858571Y-114597676D02*
X103763333Y-114692914D01*
X103763333Y-114692914D02*
X103668095Y-114740533D01*
X122489286Y-143306819D02*
X123060714Y-143306819D01*
X122775000Y-144306819D02*
X122775000Y-143306819D01*
X123917857Y-143354438D02*
X123822619Y-143306819D01*
X123822619Y-143306819D02*
X123679762Y-143306819D01*
X123679762Y-143306819D02*
X123536905Y-143354438D01*
X123536905Y-143354438D02*
X123441667Y-143449676D01*
X123441667Y-143449676D02*
X123394048Y-143544914D01*
X123394048Y-143544914D02*
X123346429Y-143735390D01*
X123346429Y-143735390D02*
X123346429Y-143878247D01*
X123346429Y-143878247D02*
X123394048Y-144068723D01*
X123394048Y-144068723D02*
X123441667Y-144163961D01*
X123441667Y-144163961D02*
X123536905Y-144259200D01*
X123536905Y-144259200D02*
X123679762Y-144306819D01*
X123679762Y-144306819D02*
X123775000Y-144306819D01*
X123775000Y-144306819D02*
X123917857Y-144259200D01*
X123917857Y-144259200D02*
X123965476Y-144211580D01*
X123965476Y-144211580D02*
X123965476Y-143878247D01*
X123965476Y-143878247D02*
X123775000Y-143878247D01*
X124394048Y-144306819D02*
X124394048Y-143306819D01*
X124394048Y-143306819D02*
X124965476Y-144306819D01*
X124965476Y-144306819D02*
X124965476Y-143306819D01*
X125441667Y-144306819D02*
X125441667Y-143306819D01*
X125441667Y-143306819D02*
X125679762Y-143306819D01*
X125679762Y-143306819D02*
X125822619Y-143354438D01*
X125822619Y-143354438D02*
X125917857Y-143449676D01*
X125917857Y-143449676D02*
X125965476Y-143544914D01*
X125965476Y-143544914D02*
X126013095Y-143735390D01*
X126013095Y-143735390D02*
X126013095Y-143878247D01*
X126013095Y-143878247D02*
X125965476Y-144068723D01*
X125965476Y-144068723D02*
X125917857Y-144163961D01*
X125917857Y-144163961D02*
X125822619Y-144259200D01*
X125822619Y-144259200D02*
X125679762Y-144306819D01*
X125679762Y-144306819D02*
X125441667Y-144306819D01*
X126965476Y-144306819D02*
X126394048Y-144306819D01*
X126679762Y-144306819D02*
X126679762Y-143306819D01*
X126679762Y-143306819D02*
X126584524Y-143449676D01*
X126584524Y-143449676D02*
X126489286Y-143544914D01*
X126489286Y-143544914D02*
X126394048Y-143592533D01*
X114570000Y-138069819D02*
X114570000Y-137069819D01*
X115046190Y-138069819D02*
X115046190Y-137069819D01*
X115046190Y-137069819D02*
X115617618Y-138069819D01*
X115617618Y-138069819D02*
X115617618Y-137069819D01*
X116617618Y-138069819D02*
X116046190Y-138069819D01*
X116331904Y-138069819D02*
X116331904Y-137069819D01*
X116331904Y-137069819D02*
X116236666Y-137212676D01*
X116236666Y-137212676D02*
X116141428Y-137307914D01*
X116141428Y-137307914D02*
X116046190Y-137355533D01*
X102484819Y-121483333D02*
X103199104Y-121483333D01*
X103199104Y-121483333D02*
X103341961Y-121530952D01*
X103341961Y-121530952D02*
X103437200Y-121626190D01*
X103437200Y-121626190D02*
X103484819Y-121769047D01*
X103484819Y-121769047D02*
X103484819Y-121864285D01*
X103484819Y-121007142D02*
X102484819Y-121007142D01*
X102484819Y-121007142D02*
X102484819Y-120626190D01*
X102484819Y-120626190D02*
X102532438Y-120530952D01*
X102532438Y-120530952D02*
X102580057Y-120483333D01*
X102580057Y-120483333D02*
X102675295Y-120435714D01*
X102675295Y-120435714D02*
X102818152Y-120435714D01*
X102818152Y-120435714D02*
X102913390Y-120483333D01*
X102913390Y-120483333D02*
X102961009Y-120530952D01*
X102961009Y-120530952D02*
X103008628Y-120626190D01*
X103008628Y-120626190D02*
X103008628Y-121007142D01*
X102580057Y-120054761D02*
X102532438Y-120007142D01*
X102532438Y-120007142D02*
X102484819Y-119911904D01*
X102484819Y-119911904D02*
X102484819Y-119673809D01*
X102484819Y-119673809D02*
X102532438Y-119578571D01*
X102532438Y-119578571D02*
X102580057Y-119530952D01*
X102580057Y-119530952D02*
X102675295Y-119483333D01*
X102675295Y-119483333D02*
X102770533Y-119483333D01*
X102770533Y-119483333D02*
X102913390Y-119530952D01*
X102913390Y-119530952D02*
X103484819Y-120102380D01*
X103484819Y-120102380D02*
X103484819Y-119483333D01*
X111633095Y-114389819D02*
X112204523Y-114389819D01*
X111918809Y-115389819D02*
X111918809Y-114389819D01*
X112490238Y-114485057D02*
X112537857Y-114437438D01*
X112537857Y-114437438D02*
X112633095Y-114389819D01*
X112633095Y-114389819D02*
X112871190Y-114389819D01*
X112871190Y-114389819D02*
X112966428Y-114437438D01*
X112966428Y-114437438D02*
X113014047Y-114485057D01*
X113014047Y-114485057D02*
X113061666Y-114580295D01*
X113061666Y-114580295D02*
X113061666Y-114675533D01*
X113061666Y-114675533D02*
X113014047Y-114818390D01*
X113014047Y-114818390D02*
X112442619Y-115389819D01*
X112442619Y-115389819D02*
X113061666Y-115389819D01*
X114354819Y-142774999D02*
X113354819Y-142774999D01*
X114354819Y-142298809D02*
X113354819Y-142298809D01*
X113354819Y-142298809D02*
X114354819Y-141727381D01*
X114354819Y-141727381D02*
X113354819Y-141727381D01*
X113450057Y-141298809D02*
X113402438Y-141251190D01*
X113402438Y-141251190D02*
X113354819Y-141155952D01*
X113354819Y-141155952D02*
X113354819Y-140917857D01*
X113354819Y-140917857D02*
X113402438Y-140822619D01*
X113402438Y-140822619D02*
X113450057Y-140775000D01*
X113450057Y-140775000D02*
X113545295Y-140727381D01*
X113545295Y-140727381D02*
X113640533Y-140727381D01*
X113640533Y-140727381D02*
X113783390Y-140775000D01*
X113783390Y-140775000D02*
X114354819Y-141346428D01*
X114354819Y-141346428D02*
X114354819Y-140727381D01*
X126821819Y-106655951D02*
X125821819Y-106655951D01*
X125821819Y-106655951D02*
X125821819Y-106274999D01*
X125821819Y-106274999D02*
X125869438Y-106179761D01*
X125869438Y-106179761D02*
X125917057Y-106132142D01*
X125917057Y-106132142D02*
X126012295Y-106084523D01*
X126012295Y-106084523D02*
X126155152Y-106084523D01*
X126155152Y-106084523D02*
X126250390Y-106132142D01*
X126250390Y-106132142D02*
X126298009Y-106179761D01*
X126298009Y-106179761D02*
X126345628Y-106274999D01*
X126345628Y-106274999D02*
X126345628Y-106655951D01*
X125821819Y-105751189D02*
X126821819Y-105513094D01*
X126821819Y-105513094D02*
X126107533Y-105322618D01*
X126107533Y-105322618D02*
X126821819Y-105132142D01*
X126821819Y-105132142D02*
X125821819Y-104894047D01*
X126821819Y-104513094D02*
X125821819Y-104513094D01*
X125821819Y-104513094D02*
X126536104Y-104179761D01*
X126536104Y-104179761D02*
X125821819Y-103846428D01*
X125821819Y-103846428D02*
X126821819Y-103846428D01*
X126821819Y-102846428D02*
X126821819Y-103417856D01*
X126821819Y-103132142D02*
X125821819Y-103132142D01*
X125821819Y-103132142D02*
X125964676Y-103227380D01*
X125964676Y-103227380D02*
X126059914Y-103322618D01*
X126059914Y-103322618D02*
X126107533Y-103417856D01*
X125555476Y-121104819D02*
X125555476Y-120104819D01*
X125555476Y-120104819D02*
X125888809Y-120819104D01*
X125888809Y-120819104D02*
X126222142Y-120104819D01*
X126222142Y-120104819D02*
X126222142Y-121104819D01*
X126650714Y-120200057D02*
X126698333Y-120152438D01*
X126698333Y-120152438D02*
X126793571Y-120104819D01*
X126793571Y-120104819D02*
X127031666Y-120104819D01*
X127031666Y-120104819D02*
X127126904Y-120152438D01*
X127126904Y-120152438D02*
X127174523Y-120200057D01*
X127174523Y-120200057D02*
X127222142Y-120295295D01*
X127222142Y-120295295D02*
X127222142Y-120390533D01*
X127222142Y-120390533D02*
X127174523Y-120533390D01*
X127174523Y-120533390D02*
X126603095Y-121104819D01*
X126603095Y-121104819D02*
X127222142Y-121104819D01*
X111633095Y-104231819D02*
X112204523Y-104231819D01*
X111918809Y-105231819D02*
X111918809Y-104231819D01*
X113061666Y-105231819D02*
X112490238Y-105231819D01*
X112775952Y-105231819D02*
X112775952Y-104231819D01*
X112775952Y-104231819D02*
X112680714Y-104374676D01*
X112680714Y-104374676D02*
X112585476Y-104469914D01*
X112585476Y-104469914D02*
X112490238Y-104517533D01*
X102743095Y-126529819D02*
X102743095Y-125529819D01*
X102743095Y-126006009D02*
X103314523Y-126006009D01*
X103314523Y-126529819D02*
X103314523Y-125529819D01*
X103743095Y-125625057D02*
X103790714Y-125577438D01*
X103790714Y-125577438D02*
X103885952Y-125529819D01*
X103885952Y-125529819D02*
X104124047Y-125529819D01*
X104124047Y-125529819D02*
X104219285Y-125577438D01*
X104219285Y-125577438D02*
X104266904Y-125625057D01*
X104266904Y-125625057D02*
X104314523Y-125720295D01*
X104314523Y-125720295D02*
X104314523Y-125815533D01*
X104314523Y-125815533D02*
X104266904Y-125958390D01*
X104266904Y-125958390D02*
X103695476Y-126529819D01*
X103695476Y-126529819D02*
X104314523Y-126529819D01*
X102484819Y-110688333D02*
X103199104Y-110688333D01*
X103199104Y-110688333D02*
X103341961Y-110735952D01*
X103341961Y-110735952D02*
X103437200Y-110831190D01*
X103437200Y-110831190D02*
X103484819Y-110974047D01*
X103484819Y-110974047D02*
X103484819Y-111069285D01*
X103484819Y-110212142D02*
X102484819Y-110212142D01*
X102484819Y-110212142D02*
X102484819Y-109831190D01*
X102484819Y-109831190D02*
X102532438Y-109735952D01*
X102532438Y-109735952D02*
X102580057Y-109688333D01*
X102580057Y-109688333D02*
X102675295Y-109640714D01*
X102675295Y-109640714D02*
X102818152Y-109640714D01*
X102818152Y-109640714D02*
X102913390Y-109688333D01*
X102913390Y-109688333D02*
X102961009Y-109735952D01*
X102961009Y-109735952D02*
X103008628Y-109831190D01*
X103008628Y-109831190D02*
X103008628Y-110212142D01*
X103484819Y-108688333D02*
X103484819Y-109259761D01*
X103484819Y-108974047D02*
X102484819Y-108974047D01*
X102484819Y-108974047D02*
X102627676Y-109069285D01*
X102627676Y-109069285D02*
X102722914Y-109164523D01*
X102722914Y-109164523D02*
X102770533Y-109259761D01*
X111633095Y-125819819D02*
X112204523Y-125819819D01*
X111918809Y-126819819D02*
X111918809Y-125819819D01*
X112442619Y-125819819D02*
X113061666Y-125819819D01*
X113061666Y-125819819D02*
X112728333Y-126200771D01*
X112728333Y-126200771D02*
X112871190Y-126200771D01*
X112871190Y-126200771D02*
X112966428Y-126248390D01*
X112966428Y-126248390D02*
X113014047Y-126296009D01*
X113014047Y-126296009D02*
X113061666Y-126391247D01*
X113061666Y-126391247D02*
X113061666Y-126629342D01*
X113061666Y-126629342D02*
X113014047Y-126724580D01*
X113014047Y-126724580D02*
X112966428Y-126772200D01*
X112966428Y-126772200D02*
X112871190Y-126819819D01*
X112871190Y-126819819D02*
X112585476Y-126819819D01*
X112585476Y-126819819D02*
X112490238Y-126772200D01*
X112490238Y-126772200D02*
X112442619Y-126724580D01*
X125555476Y-110309819D02*
X125555476Y-109309819D01*
X125555476Y-109309819D02*
X125888809Y-110024104D01*
X125888809Y-110024104D02*
X126222142Y-109309819D01*
X126222142Y-109309819D02*
X126222142Y-110309819D01*
X127222142Y-110309819D02*
X126650714Y-110309819D01*
X126936428Y-110309819D02*
X126936428Y-109309819D01*
X126936428Y-109309819D02*
X126841190Y-109452676D01*
X126841190Y-109452676D02*
X126745952Y-109547914D01*
X126745952Y-109547914D02*
X126650714Y-109595533D01*
X102484819Y-132913333D02*
X103199104Y-132913333D01*
X103199104Y-132913333D02*
X103341961Y-132960952D01*
X103341961Y-132960952D02*
X103437200Y-133056190D01*
X103437200Y-133056190D02*
X103484819Y-133199047D01*
X103484819Y-133199047D02*
X103484819Y-133294285D01*
X103484819Y-132437142D02*
X102484819Y-132437142D01*
X102484819Y-132437142D02*
X102484819Y-132056190D01*
X102484819Y-132056190D02*
X102532438Y-131960952D01*
X102532438Y-131960952D02*
X102580057Y-131913333D01*
X102580057Y-131913333D02*
X102675295Y-131865714D01*
X102675295Y-131865714D02*
X102818152Y-131865714D01*
X102818152Y-131865714D02*
X102913390Y-131913333D01*
X102913390Y-131913333D02*
X102961009Y-131960952D01*
X102961009Y-131960952D02*
X103008628Y-132056190D01*
X103008628Y-132056190D02*
X103008628Y-132437142D01*
X102484819Y-131532380D02*
X102484819Y-130913333D01*
X102484819Y-130913333D02*
X102865771Y-131246666D01*
X102865771Y-131246666D02*
X102865771Y-131103809D01*
X102865771Y-131103809D02*
X102913390Y-131008571D01*
X102913390Y-131008571D02*
X102961009Y-130960952D01*
X102961009Y-130960952D02*
X103056247Y-130913333D01*
X103056247Y-130913333D02*
X103294342Y-130913333D01*
X103294342Y-130913333D02*
X103389580Y-130960952D01*
X103389580Y-130960952D02*
X103437200Y-131008571D01*
X103437200Y-131008571D02*
X103484819Y-131103809D01*
X103484819Y-131103809D02*
X103484819Y-131389523D01*
X103484819Y-131389523D02*
X103437200Y-131484761D01*
X103437200Y-131484761D02*
X103389580Y-131532380D01*
%TO.C,PWM3*%
D12*
X124640000Y-126365000D02*
G75*
G02*
X121740000Y-126365000I-1450000J0D01*
G01*
X121740000Y-126365000D02*
G75*
G02*
X124640000Y-126365000I1450000J0D01*
G01*
%TO.C,PWM2*%
X124640000Y-115570000D02*
G75*
G02*
X121740000Y-115570000I-1450000J0D01*
G01*
X121740000Y-115570000D02*
G75*
G02*
X124640000Y-115570000I1450000J0D01*
G01*
%TO.C,T12V1*%
X126225000Y-140775000D02*
G75*
G02*
X123325000Y-140775000I-1450000J0D01*
G01*
X123325000Y-140775000D02*
G75*
G02*
X126225000Y-140775000I1450000J0D01*
G01*
%TO.C,M3*%
X114220000Y-129480000D02*
X119970000Y-129480000D01*
X114220000Y-135480000D02*
X114220000Y-129480000D01*
X115570000Y-134370000D02*
X120650000Y-134370000D01*
X115570000Y-135380000D02*
X115570000Y-134370000D01*
X120650000Y-134370000D02*
X120650000Y-135380000D01*
X121320000Y-129530000D02*
X124520000Y-129530000D01*
X124520000Y-129530000D02*
X124520000Y-135480000D01*
X124520000Y-135480000D02*
X114220000Y-135480000D01*
%TO.C,TGND1*%
X126225000Y-146000000D02*
G75*
G02*
X123325000Y-146000000I-1450000J0D01*
G01*
X123325000Y-146000000D02*
G75*
G02*
X126225000Y-146000000I1450000J0D01*
G01*
%TO.C,IN1*%
D13*
X111070000Y-138940000D02*
X113270000Y-138940000D01*
X111070000Y-153240000D02*
X111070000Y-138940000D01*
X117870000Y-138940000D02*
X120070000Y-138940000D01*
X120070000Y-138940000D02*
X120070000Y-139840000D01*
X120070000Y-144640000D02*
X120070000Y-153240000D01*
X120070000Y-153240000D02*
X111070000Y-153240000D01*
%TO.C,JP2*%
D12*
X104030000Y-122030000D02*
X104030000Y-120650000D01*
X105410000Y-122030000D02*
X104030000Y-122030000D01*
X106680000Y-119270000D02*
X109330000Y-119270000D01*
X106680000Y-122030000D02*
X106680000Y-119270000D01*
X106680000Y-122030000D02*
X109330000Y-122030000D01*
X109330000Y-122030000D02*
X109330000Y-119270000D01*
%TO.C,T2*%
X117020000Y-115570000D02*
G75*
G02*
X114120000Y-115570000I-1450000J0D01*
G01*
X114120000Y-115570000D02*
G75*
G02*
X117020000Y-115570000I1450000J0D01*
G01*
%TO.C,IN2*%
D13*
X98275000Y-137275000D02*
X112575000Y-137275000D01*
X98275000Y-146275000D02*
X98275000Y-137275000D01*
X106875000Y-146275000D02*
X98275000Y-146275000D01*
X112575000Y-137275000D02*
X112575000Y-139475000D01*
X112575000Y-144075000D02*
X112575000Y-146275000D01*
X112575000Y-146275000D02*
X111675000Y-146275000D01*
%TO.C,PWM1*%
D12*
X124640000Y-104775000D02*
G75*
G02*
X121740000Y-104775000I-1450000J0D01*
G01*
X121740000Y-104775000D02*
G75*
G02*
X124640000Y-104775000I1450000J0D01*
G01*
%TO.C,M2*%
X114220000Y-118050000D02*
X119970000Y-118050000D01*
X114220000Y-124050000D02*
X114220000Y-118050000D01*
X115570000Y-122940000D02*
X120650000Y-122940000D01*
X115570000Y-123950000D02*
X115570000Y-122940000D01*
X120650000Y-122940000D02*
X120650000Y-123950000D01*
X121320000Y-118100000D02*
X124520000Y-118100000D01*
X124520000Y-118100000D02*
X124520000Y-124050000D01*
X124520000Y-124050000D02*
X114220000Y-124050000D01*
%TO.C,T1*%
X117020000Y-104775000D02*
G75*
G02*
X114120000Y-104775000I-1450000J0D01*
G01*
X114120000Y-104775000D02*
G75*
G02*
X117020000Y-104775000I1450000J0D01*
G01*
%TO.C,JP1*%
X104030000Y-111235000D02*
X104030000Y-109855000D01*
X105410000Y-111235000D02*
X104030000Y-111235000D01*
X106680000Y-108475000D02*
X109330000Y-108475000D01*
X106680000Y-111235000D02*
X106680000Y-108475000D01*
X106680000Y-111235000D02*
X109330000Y-111235000D01*
X109330000Y-111235000D02*
X109330000Y-108475000D01*
%TO.C,T3*%
X117020000Y-126365000D02*
G75*
G02*
X114120000Y-126365000I-1450000J0D01*
G01*
X114120000Y-126365000D02*
G75*
G02*
X117020000Y-126365000I1450000J0D01*
G01*
%TO.C,M1*%
X114220000Y-107255000D02*
X119970000Y-107255000D01*
X114220000Y-113255000D02*
X114220000Y-107255000D01*
X115570000Y-112145000D02*
X120650000Y-112145000D01*
X115570000Y-113155000D02*
X115570000Y-112145000D01*
X120650000Y-112145000D02*
X120650000Y-113155000D01*
X121320000Y-107305000D02*
X124520000Y-107305000D01*
X124520000Y-107305000D02*
X124520000Y-113255000D01*
X124520000Y-113255000D02*
X114220000Y-113255000D01*
%TO.C,JP3*%
X104030000Y-133460000D02*
X104030000Y-132080000D01*
X105410000Y-133460000D02*
X104030000Y-133460000D01*
X106680000Y-130700000D02*
X109330000Y-130700000D01*
X106680000Y-133460000D02*
X106680000Y-130700000D01*
X106680000Y-133460000D02*
X109330000Y-133460000D01*
X109330000Y-133460000D02*
X109330000Y-130700000D01*
%TD*%
M02*
